<?xml version="1.0" encoding="UTF-8"?>
<svg version="1.1" xmlns="http://www.w3.org/2000/svg" width="3000" height="665">
<path d="M0 0 C0 63.03 0 126.06 0 191 C9.57 191.99 19.14 192.98 29 194 C28.80535156 189.7821875 28.61070312 185.564375 28.41015625 181.21875 C28.31933747 177.80885639 28.25212353 174.40026644 28.20053864 170.98963928 C28.14004866 167.41043756 28.04038405 163.84325041 27.83764648 160.26904297 C26.58409574 137.39680681 26.58409574 137.39680681 32.19308472 130.17715454 C37.56800751 125.26667522 43.59994346 121.8052637 50.07298279 118.5422821 C54.63058733 116.14082307 58.75015852 113.17339977 62.9375 110.1875 C64.47558924 109.133391 66.01565675 108.08215658 67.55859375 107.03515625 C70.49496043 105.03166103 73.42449293 103.01880359 76.34765625 100.99609375 C83.80553694 95.83740201 91.29359398 90.7838495 99 86 C100 87 100 87 100.12304783 89.07521915 C100.12212604 89.99609035 100.12120424 90.91696154 100.12025452 91.86573792 C100.12231651 93.4454538 100.12231651 93.4454538 100.12442017 95.05708313 C100.12082489 96.22233017 100.11722961 97.38757721 100.11352539 98.58813477 C100.11367142 99.80747711 100.11381744 101.02681946 100.1139679 102.28311157 C100.11338893 105.63627511 100.10835968 108.98937774 100.10139394 112.34253049 C100.09515983 115.84325562 100.09455656 119.34398148 100.09336853 122.8447113 C100.09025538 129.47809656 100.08204222 136.11146541 100.07201904 142.74484342 C100.06085739 150.29490207 100.05534732 157.84496149 100.05032361 165.39502633 C100.03985959 180.93002706 100.02226047 196.46501142 100 212 C100.68998203 212.20449925 101.37996407 212.40899851 102.09085464 212.61969471 C103.44583368 213.02327717 103.44583368 213.02327717 104.82818604 213.43501282 C105.72441807 213.70138707 106.6206501 213.96776133 107.54404068 214.24220753 C110.05838807 215.01801579 112.45610598 215.9092291 114.859375 216.98046875 C115.65754639 217.33536377 116.45571777 217.69025879 117.27807617 218.0559082 C118.09381104 218.4293335 118.9095459 218.80275879 119.75 219.1875 C120.62052002 219.58477295 121.49104004 219.9820459 122.38793945 220.39135742 C151.30455564 233.78159351 178.66677794 253.10030044 190.09375 283.953125 C195.01910422 300.64460318 191.90911456 316.64161255 183.8828125 331.7109375 C181.30827298 336.2083696 178.395102 340.09848573 175 344 C174.34515625 344.79792969 173.6903125 345.59585937 173.015625 346.41796875 C163.02985849 358.17128882 150.15584908 366.22848715 137 374 C135.88882812 374.66644531 134.77765625 375.33289063 133.6328125 376.01953125 C97.2368987 396.65508977 54.09177806 405.16353944 13 410 C11.99630371 410.11859375 10.99260742 410.2371875 9.95849609 410.359375 C-67.95366106 419.0349292 -165.78363008 409.09818441 -229 359 C-240.33873098 349.76091655 -249.65697309 339.24858526 -256 326 C-256.39058594 325.21238281 -256.78117188 324.42476563 -257.18359375 323.61328125 C-263.35029362 309.94715149 -263.45605905 294.09380708 -258.33984375 280.12890625 C-253.19169424 268.10655127 -246.23341454 259.10423071 -237 250 C-236.29488281 249.28457031 -235.58976562 248.56914062 -234.86328125 247.83203125 C-220.52530786 234.17011162 -189.53769423 212 -169 212 C-169.04219162 211.37740799 -169.08438324 210.75481598 -169.12785339 210.11335754 C-169.55133419 203.57680999 -169.83587084 197.04418871 -170.04370117 190.49731445 C-170.13872162 188.06243562 -170.26801332 185.62862633 -170.43334961 183.19750977 C-171.73359879 163.57300587 -171.73359879 163.57300587 -167.21478271 157.66659546 C-162.79010995 153.63993776 -157.81444221 150.90785236 -152.46691895 148.29507446 C-148.42857728 146.17504001 -144.87390025 143.43986221 -141.25 140.6875 C-140.44095215 140.0992041 -139.6319043 139.5109082 -138.79833984 138.90478516 C-138.15074707 138.43347168 -137.5031543 137.9621582 -136.8359375 137.4765625 C-130.28224134 132.73705737 -123.62281124 128.14816266 -116.96582031 123.55541992 C-112.06598165 120.16735237 -107.24594516 116.73043546 -102.56298828 113.04663086 C-101 112 -101 112 -99 112 C-98.67 139.06 -98.34 166.12 -98 194 C-88.43 193.01 -78.86 192.02 -69 191 C-69.08378906 186.76124023 -69.16757812 182.52248047 -69.25390625 178.15527344 C-69.51935015 164.13024952 -69.69669784 150.10512484 -69.82899475 136.07824326 C-69.91132917 127.57559478 -70.02345783 119.07533389 -70.20703125 110.57421875 C-70.36705624 103.16004297 -70.46985426 95.74759635 -70.50541592 88.33174157 C-70.52619301 84.40784225 -70.57459299 80.48888684 -70.69168091 76.56658173 C-71.43179613 50.79730979 -71.43179613 50.79730979 -65.50141907 44.46578979 C-62.22088782 41.70696425 -58.75001364 39.68045196 -54.86571312 37.89071751 C-52.39690379 36.71207344 -50.31605678 35.15900178 -48.16796875 33.4765625 C-46.84210426 32.52470524 -45.51529941 31.57415627 -44.1875 30.625 C-37.84118869 26.06576429 -31.53364144 21.45769897 -25.25 16.8125 C-19.49278737 12.5646425 -13.73509241 8.31765658 -7.9375 4.125 C-7.0707666 3.4904187 -7.0707666 3.4904187 -6.18652344 2.84301758 C-2.23133625 0 -2.23133625 0 0 0 Z M-81.83203125 193.62109375 C-82.64994141 193.75193359 -83.46785156 193.88277344 -84.31054688 194.01757812 C-85.13619141 194.15615234 -85.96183594 194.29472656 -86.8125 194.4375 C-87.65748047 194.57220703 -88.50246094 194.70691406 -89.37304688 194.84570312 C-92.70495209 195.38822939 -95.78957654 195.92985885 -99 197 C-99 244.52 -99 292.04 -99 341 C-121.13053503 335.09852399 -141.7197618 329.52130042 -161.4855957 318.33642578 C-164.35189617 316.75501679 -164.35189617 316.75501679 -169 315 C-169 284.31 -169 253.62 -169 222 C-185.40846104 228.56338441 -199.72581234 244.12734948 -207 260 C-211.04964616 271.6160903 -210.2474896 284.92371207 -205 296 C-192.07465363 321.73990405 -161.83076044 337.34020113 -135.61474609 346.17626953 C-64.35218249 368.62630591 24.00603841 369.74286564 91.83203125 335.25 C102.41695429 329.64235165 112.00089433 322.92743403 121 315 C121.98419922 314.14148438 121.98419922 314.14148438 122.98828125 313.265625 C131.88478726 304.98063049 139.18429699 292.50762037 140.23828125 280.22265625 C140.62295612 263.84360542 134.47497677 251.31293527 123.53222656 239.48046875 C116.65950727 232.3538881 108.90901159 226.3480683 100 222 C100.01633987 223.13481812 100.03267975 224.26963623 100.04951477 225.43884277 C100.19521755 236.14983623 100.27218457 246.85942966 100.28240681 257.57143402 C100.28985673 263.07855967 100.321249 268.58335047 100.40795898 274.08984375 C100.49080492 279.40751843 100.50997224 284.72201133 100.48558617 290.04023743 C100.48737386 292.06568632 100.51184771 294.09124999 100.55968666 296.11613464 C100.9032235 311.56020748 100.9032235 311.56020748 97.73430634 315.62252617 C94.24842894 318.67762766 90.31396045 320.34596349 86 322 C84.30999478 322.82424063 82.62382684 323.65651032 80.9453125 324.50390625 C79.34466972 325.20427956 77.73770401 325.89036471 76.125 326.5625 C75.24787354 326.9332666 74.37074707 327.3040332 73.46704102 327.68603516 C59.38997055 333.47480666 44.74444026 337.31388994 30 341 C30 293.48 30 245.96 30 197 C15.76909551 193.58901905 15.76909551 193.58901905 0 193 C0 243.49 0 293.98 0 346 C-22.77 346 -45.54 346 -69 346 C-69 295.51 -69 245.02 -69 193 C-75.53785177 192.95108048 -75.53785177 192.95108048 -81.83203125 193.62109375 Z " fill="#9472DB" transform="translate(417,14)"/>
<path d="M0 0 C16.64703257 16.00263131 24.93366771 39.22339691 25.61098671 62.05303001 C25.71380801 67.75934542 25.70406481 73.46557562 25.6965332 79.17260742 C25.7008873 81.36204196 25.70607276 83.55147497 25.71202087 85.74090576 C25.72534884 91.65646246 25.72599634 97.57195502 25.72345757 103.48752379 C25.72238337 108.44222913 25.72728282 113.39692172 25.732063 118.35162431 C25.74376915 130.71873044 25.74294546 143.08580128 25.73650619 155.4529098 C25.73102237 166.81583662 25.74499459 178.17865165 25.7651189 189.54156035 C25.78279104 199.90465828 25.78872732 210.26771912 25.78548115 220.63083154 C25.78367666 226.80500336 25.7862204 232.97909169 25.80019569 239.15324974 C25.81286061 244.96545299 25.81074871 250.77747512 25.79778481 256.5896759 C25.79543801 258.70908993 25.79808463 260.82851705 25.80640793 262.94791603 C25.90260976 289.3731917 22.25272361 314.56509239 4.421875 335.328125 C3.92429687 335.92109375 3.42671875 336.5140625 2.9140625 337.125 C-8.83609737 349.99703443 -25.83803412 356.41680485 -42.578125 359.328125 C-43.60035156 359.51246094 -44.62257813 359.69679688 -45.67578125 359.88671875 C-74.51239794 363.14851824 -102.36905385 359.46120947 -125.578125 341.328125 C-143.53559238 326.2478209 -150.20366397 302.78034068 -152.578125 280.328125 C-153.06572433 272.95631591 -152.99018275 265.56964919 -152.96630859 258.18554688 C-152.97038529 256.03625728 -152.97573326 253.88696978 -152.98223877 251.73768616 C-152.99578771 245.95874088 -152.99066561 240.17995824 -152.98110151 234.40101051 C-152.97343991 228.31742581 -152.9805684 222.23385388 -152.98526001 216.15026855 C-152.99069879 205.93918388 -152.98357546 195.72816457 -152.96923828 185.51708984 C-152.95291546 173.75694334 -152.9582053 161.99695294 -152.9747175 150.23681021 C-152.9883861 140.09097771 -152.99022587 129.94519186 -152.98240149 119.79935312 C-152.9777544 113.76106112 -152.97701766 107.72284219 -152.98701096 101.68455505 C-152.99575703 96.00440194 -152.98952096 90.32444764 -152.97232819 84.64431572 C-152.96840377 82.57530991 -152.96942673 80.506287 -152.97611618 78.43728828 C-153.06223316 49.06575915 -148.21355633 22.74265325 -127.328125 0.703125 C-122.56486036 -3.94653538 -117.33660975 -7.37391222 -111.578125 -10.671875 C-110.93488281 -11.06117187 -110.29164063 -11.45046875 -109.62890625 -11.8515625 C-77.8219436 -29.65242229 -26.90042055 -23.39859066 0 0 Z M-87.11328125 43.18359375 C-93.34837711 52.58168285 -93.73348189 63.36265565 -93.71183777 74.30207825 C-93.71410333 75.15884728 -93.71636888 76.01561631 -93.71870309 76.89834803 C-93.72498951 79.74450193 -93.7242172 82.59060755 -93.72338867 85.43676758 C-93.72638349 87.48756471 -93.72978677 89.53836127 -93.73356628 91.5891571 C-93.74237717 97.14297479 -93.74474316 102.69677705 -93.74538207 108.25060105 C-93.74609417 111.72472877 -93.74823153 115.1988526 -93.75087929 118.67297935 C-93.76012276 130.80518212 -93.76421539 142.93737391 -93.76342773 155.06958008 C-93.76282707 166.35928905 -93.77337932 177.64895022 -93.7891714 188.93864709 C-93.80226716 198.64849217 -93.80761078 208.35832166 -93.80697232 218.06817549 C-93.80671796 223.85990341 -93.80953542 229.6515888 -93.82015038 235.44330788 C-93.82986577 240.89262191 -93.82988699 246.34185308 -93.82263374 251.79117012 C-93.82159221 253.784097 -93.82392502 255.77702914 -93.8299942 257.76994705 C-94.55701403 280.05429398 -94.55701403 280.05429398 -84.75390625 299.17578125 C-82.76779001 300.76389384 -80.78764991 302.07205362 -78.578125 303.328125 C-77.98386719 303.66714844 -77.38960937 304.00617188 -76.77734375 304.35546875 C-69.05417006 307.94418115 -59.09665992 307.5917054 -51.203125 304.765625 C-44.0185105 301.36238655 -39.02739746 297.37098207 -36.140625 289.828125 C-33.82352213 282.76251984 -33.43031761 275.75764774 -33.44441223 268.3914032 C-33.4410139 267.07606959 -33.4410139 267.07606959 -33.43754691 265.73416358 C-33.43123781 262.80803235 -33.43203428 259.88194781 -33.43286133 256.95581055 C-33.42986791 254.85280294 -33.42646496 252.74979589 -33.42268372 250.64678955 C-33.41385819 244.94216616 -33.41150621 239.23755778 -33.41086793 233.53292823 C-33.41015662 229.96669659 -33.40802076 226.40046875 -33.40537071 222.83423805 C-33.39612217 210.38664127 -33.39203522 197.93905518 -33.39282227 185.49145508 C-33.39342297 173.89841669 -33.38287129 162.30542484 -33.3670786 150.71239823 C-33.3539926 140.75039759 -33.34863881 130.78841213 -33.34927768 120.82640296 C-33.34953234 114.88044937 -33.34669822 108.93453716 -33.33609962 102.98859215 C-33.3264008 97.39485497 -33.32635174 91.80119857 -33.33361626 86.2074585 C-33.33465987 84.15886631 -33.33231253 82.11026906 -33.3262558 80.06168556 C-33.31850119 77.25629553 -33.32320354 74.4511821 -33.33088684 71.64579773 C-33.32574328 70.8431471 -33.32059971 70.04049647 -33.31530029 69.21352309 C-33.37284769 59.64659419 -35.08970927 50.32631877 -40.578125 42.328125 C-47.19778606 35.84246518 -54.22275636 33.68514958 -63.328125 33.078125 C-71.8753156 33.22492789 -81.54599416 36.45468441 -87.11328125 43.18359375 Z " fill="#4D0383" transform="translate(1126.578125,97.671875)"/>
<path d="M0 0 C19.47 0 38.94 0 59 0 C59.33 52.14 59.66 104.28 60 158 C75.4247086 126.26948777 75.4247086 126.26948777 90.5625 94.40234375 C91.87465145 91.60139905 93.18715792 88.80062106 94.5 86 C94.99954697 84.93409134 94.99954697 84.93409134 95.50918579 83.84664917 C101.51155805 71.0510643 107.68272794 58.3418692 113.90008545 45.64959717 C119.83875432 33.52126184 125.63789275 21.33900397 131.2565918 9.05908203 C131.74168213 8.00060059 132.22677246 6.94211914 132.7265625 5.8515625 C133.35425537 4.47218506 133.35425537 4.47218506 133.99462891 3.06494141 C135 1 135 1 136 0 C137.81055025 -0.09376053 139.62477201 -0.1174411 141.43774414 -0.11352539 C142.59887222 -0.11344986 143.76000031 -0.11337433 144.95631409 -0.11329651 C146.85159096 -0.10555458 146.85159096 -0.10555458 148.78515625 -0.09765625 C150.71408974 -0.09553383 150.71408974 -0.09553383 152.68199158 -0.09336853 C156.10643443 -0.08954418 159.53083509 -0.07971462 162.95526123 -0.06866455 C166.44738189 -0.05844864 169.93950934 -0.05387053 173.43164062 -0.04882812 C180.28777778 -0.03809227 187.14388687 -0.02101684 194 0 C193.34546543 3.50672978 192.518278 6.31488742 190.8828125 9.4921875 C190.22889526 10.77778564 190.22889526 10.77778564 189.56176758 12.08935547 C189.08763428 13.00861816 188.61350098 13.92788086 188.125 14.875 C187.1089214 16.87410862 186.09464971 18.87413648 185.08203125 20.875 C184.56463379 21.89722656 184.04723633 22.91945313 183.51416016 23.97265625 C181.21233059 28.57483081 179.01186906 33.22322243 176.8125 37.875 C172.33570765 47.31544201 167.69063099 56.66472191 163 66 C157.94299287 76.06457713 152.97188513 86.1587457 148.15234375 96.33984375 C144.37782242 104.28206572 140.44846243 112.14342601 136.5 120 C131.86046998 129.23472774 127.26929092 138.48761652 122.8125 147.8125 C122.379375 148.71806641 121.94625 149.62363281 121.5 150.55664062 C120.32243488 153.03326569 119.14883923 155.50989498 118 158 C117.61953018 158.63669113 117.23906036 159.27338226 116.84706116 159.92936707 C115.04620177 163.22538968 113.83208504 165.70488715 114.32469177 169.50431824 C115.21403461 172.32294241 116.28304471 174.98669347 117.45703125 177.69921875 C117.8658252 178.7151712 118.27461914 179.73112366 118.69580078 180.77786255 C120.03810897 184.09419596 121.4249283 187.38988123 122.8125 190.6875 C123.75480319 192.99370771 124.69382198 195.30126 125.62963867 197.61010742 C127.51396341 202.24874963 129.41400197 206.88041265 131.328125 211.50683594 C134.61956863 219.47788166 137.77823763 227.49869743 140.91854858 235.53018188 C142.41186718 239.34272473 143.91931287 243.14966971 145.42578125 246.95703125 C146.01910681 248.45781982 146.61236858 249.9586336 147.20556641 251.45947266 C147.64742279 252.57736176 147.64742279 252.57736176 148.09820557 253.71783447 C150.58655909 260.01509516 153.07171115 266.3136206 155.5574646 272.61190796 C157.12149104 276.57466532 158.68575721 280.53732804 160.25 284.5 C160.87500116 286.08333288 161.50000116 287.66666621 162.125 289.25 C162.434375 290.03375 162.74375 290.8175 163.0625 291.625 C165.875 298.75 165.875 298.75 166.81227112 301.12446594 C167.43799238 302.70959592 168.06375539 304.29470942 168.68955994 305.87980652 C170.24136553 309.81051786 171.79247113 313.74150241 173.34204102 317.6730957 C176.28119158 325.12812637 179.22797578 332.57991673 182.19747925 340.0229187 C183.60737448 343.55795658 185.01355338 347.09446727 186.41943359 350.63110352 C187.09383862 352.32455556 187.77008503 354.01727555 188.44824219 355.70922852 C189.38545853 358.04783974 190.31643289 360.38884586 191.24609375 362.73046875 C191.66676369 363.77294014 191.66676369 363.77294014 192.09593201 364.83647156 C193.23517682 367.72153606 194 369.86665729 194 373 C173.87 373 153.74 373 133 373 C122.05980116 344.72236741 111.16840867 316.4271172 100.33642578 288.10791016 C96.62794701 278.41260372 92.91713812 268.71818944 89.20553589 259.02407837 C88.02348528 255.9363478 86.84192232 252.84843095 85.66040039 249.76049805 C84.94028819 247.87938639 84.22015582 245.99828246 83.5 244.1171875 C83.17378159 243.26424606 82.84756317 242.41130463 82.51145935 241.53251648 C82.20861526 240.7417421 81.90577118 239.95096771 81.59375 239.13623047 C81.17802734 238.04758698 81.17802734 238.04758698 80.75390625 236.93695068 C80.12430493 235.31936665 79.45725729 233.71642219 78.78125 232.11767578 C78 230 78 230 78 227 C77.34 227 76.68 227 76 227 C75.73195557 227.70286133 75.46391113 228.40572266 75.18774414 229.12988281 C73.93582379 232.15507821 72.5066886 235.01736383 70.99609375 237.921875 C70.42052734 239.02917969 69.84496094 240.13648438 69.25195312 241.27734375 C68.65318359 242.42332031 68.05441406 243.56929687 67.4375 244.75 C66.83486328 245.91144531 66.23222656 247.07289063 65.61132812 248.26953125 C61.13006525 256.86993475 61.13006525 256.86993475 60 258 C59.89216271 259.4924052 59.85317854 260.9898465 59.84178162 262.48609924 C59.82709839 263.93960281 59.82709839 263.93960281 59.81211853 265.42247009 C59.80636307 266.49420975 59.8006076 267.5659494 59.79467773 268.67016602 C59.78477814 269.79197266 59.77487854 270.9137793 59.76467896 272.06958008 C59.73295441 275.79766694 59.70826338 279.52576656 59.68359375 283.25390625 C59.66303367 285.83080893 59.64203747 288.40770817 59.62062073 290.98460388 C59.57096407 297.08671926 59.52572422 303.18885291 59.48259836 309.29101747 C59.42843219 316.91735459 59.36755647 324.54363619 59.30664062 332.16992188 C59.19795907 345.77990534 59.09946709 359.38993915 59 373 C39.53 373 20.06 373 0 373 C0 249.91 0 126.82 0 0 Z " fill="#4E0484" transform="translate(1460,81)"/>
<path d="M0 0 C28.71 0 57.42 0 87 0 C92.78341762 36.04981003 98.56671924 72.09963865 104.34978275 108.14950548 C105.04031624 112.45408132 105.73085107 116.75865694 106.42138672 121.06323242 C106.55879789 121.91980927 106.69620906 122.77638611 106.8377842 123.65891983 C109.03144433 137.33346853 111.22521101 151.00800013 113.41902062 164.68252484 C115.68825949 178.82723362 117.95737562 192.9719621 120.22638917 207.11670703 C121.49319014 215.01376424 122.76004189 222.9108133 124.02703094 230.80784035 C124.3895599 233.06750017 124.75208728 235.32716026 125.11461416 237.58682042 C125.35451554 239.08211661 125.59442437 240.5774116 125.83434066 242.0727054 C127.12720054 250.13056612 128.4194792 258.18851912 129.71004868 266.24674702 C130.17429487 269.14510531 130.63858762 272.04345614 131.10290527 274.94180298 C131.27564393 276.02016404 131.27564393 276.02016404 131.45187226 277.12031018 C132.99233056 286.7353256 134.5392962 296.34927269 136.09198092 305.96232137 C137.22510791 312.97792795 138.35578117 319.99392715 139.48484232 327.0101892 C140.29543459 332.04611921 141.10936098 337.08149529 141.92577183 342.11648509 C142.42819929 345.22030412 142.92736062 348.32464181 143.42560095 351.42913546 C143.65772252 352.87120603 143.89120132 354.31305888 144.12613016 355.75467478 C144.44776494 357.72951418 144.76410683 359.70521344 145.08018875 361.68094921 C145.25882249 362.78680187 145.43745623 363.89265454 145.62150311 365.03201789 C146 368 146 368 146 373 C126.2 373 106.4 373 86 373 C84.535625 363.409375 83.07125 353.81875 81.5625 343.9375 C81.10174072 340.92101318 80.64098145 337.90452637 80.16625977 334.79663086 C79.79961549 332.39437252 79.43299599 329.99211041 79.06640625 327.58984375 C78.87719604 326.3517395 78.68798584 325.11363525 78.49304199 323.8380127 C78.31043823 322.64099731 78.12783447 321.44398193 77.93969727 320.21069336 C77.78203384 319.17810898 77.62437042 318.1455246 77.46192932 317.08164978 C76.95854897 313.72346949 76.48022425 310.36156977 76 307 C52.57 306.67 29.14 306.34 5 306 C4.505 311.94 4.505 311.94 4 318 C3.74815745 320.10436445 3.47670223 322.20669355 3.16796875 324.3034668 C3.01110596 325.38045334 2.85424316 326.45743988 2.69262695 327.56706238 C2.52593506 328.68317398 2.35924316 329.79928558 2.1875 330.94921875 C2.01371826 332.12845413 1.83993652 333.30768951 1.66088867 334.5226593 C1.29631342 336.98926173 0.92983652 339.45558379 0.56152344 341.92163086 C-0.00402197 345.71447344 -0.56094672 349.5085173 -1.1171875 353.30273438 C-1.47344537 355.70580527 -1.83019802 358.10880288 -2.1875 360.51171875 C-2.35419189 361.65009689 -2.52088379 362.78847504 -2.69262695 363.96134949 C-2.84948975 365.00366226 -3.00635254 366.04597504 -3.16796875 367.11987305 C-3.30485107 368.04076218 -3.4417334 368.96165131 -3.58276367 369.91044617 C-4 372 -4 372 -5 373 C-6.68801985 373.09353163 -8.37995207 373.11744791 -10.07055664 373.11352539 C-11.15160172 373.11344986 -12.23264679 373.11337433 -13.34645081 373.11329651 C-15.110485 373.10555458 -15.110485 373.10555458 -16.91015625 373.09765625 C-18.10732773 373.0962413 -19.30449921 373.09482635 -20.53794861 373.09336853 C-24.37949066 373.08774979 -28.22097543 373.07519411 -32.0625 373.0625 C-34.65950437 373.05748741 -37.25650965 373.05292409 -39.85351562 373.04882812 C-46.23569743 373.03777427 -52.61784281 373.02062192 -59 373 C-58.43323614 364.96586637 -57.50221346 357.07313192 -56.20742798 349.12562561 C-55.93602306 347.42530273 -55.93602306 347.42530273 -55.65913522 345.6906299 C-55.05648401 341.92204303 -54.44743671 338.15451924 -53.83837891 334.38696289 C-53.40199146 331.66973903 -52.9669697 328.95229694 -52.53189087 326.23486328 C-51.59468734 320.38577198 -50.65420456 314.53721567 -49.71147537 308.68901253 C-48.33638932 300.15859383 -46.96646771 291.62735176 -45.59772806 283.09591275 C-43.3604795 269.15183892 -41.11926471 255.20840565 -38.87548828 241.26538086 C-36.72454101 227.89914264 -34.57516521 214.53265358 -32.42822266 201.16577148 C-32.29730302 200.35066925 -32.16638338 199.53556703 -32.03149648 198.69576473 C-31.24188623 193.77956764 -30.45234736 188.8633591 -29.66283897 183.94714566 C-28.48902407 176.63788494 -27.31514593 169.32863437 -26.14120483 162.01939392 C-26.01369089 161.22544599 -25.88617694 160.43149807 -25.75479893 159.61349111 C-24.03320628 148.89447035 -22.31031634 138.17565897 -20.58623599 127.45703807 C-19.65652617 121.67681552 -18.72708471 115.89654981 -17.79769251 110.11627619 C-17.57056862 108.70374721 -17.34342883 107.29122079 -17.11627272 105.87869699 C-14.36397678 88.76399891 -11.62233918 71.64764935 -8.89764404 54.52853394 C-8.64004193 52.91041794 -8.38243889 51.2923021 -8.1248349 49.67418641 C-7.00991768 42.66996394 -5.89566266 35.66563822 -4.78401417 28.66089615 C-4.33355122 25.82351546 -3.88231757 22.98625768 -3.43091491 20.14902635 C-3.12224172 18.20707763 -2.81462742 16.2649607 -2.5070436 14.32283914 C-2.2298808 12.58155376 -2.2298808 12.58155376 -1.94711876 10.8050909 C-1.78741014 9.79882906 -1.62770152 8.79256721 -1.46315324 7.75581259 C-1.02711304 5.16132555 -0.51595669 2.57978346 0 0 Z M40 70 C36.47698115 93.54726064 32.95645429 117.09489268 29.43891144 140.64297199 C27.80567745 151.57620558 26.17162152 162.50931516 24.53564453 173.44213867 C23.11009063 182.96877167 21.68606468 192.49563159 20.26388979 202.02276963 C19.51048332 207.06946506 18.75630088 212.11604182 18.00028992 217.16234779 C17.28925257 221.90862336 16.5802531 226.65519879 15.87283897 231.40201569 C15.61237369 233.14727007 15.35115376 234.89241201 15.08913612 236.63743401 C14.73241693 239.01391933 14.37837728 241.39078866 14.02502441 243.76777649 C13.91996881 244.46329961 13.81491321 245.15882272 13.7066741 245.8754223 C13.30105792 248.62031334 13 251.21988812 13 254 C31.15 254 49.3 254 68 254 C66.83074297 244.06131523 65.66185386 234.17396517 64.16462708 224.28681946 C64.05327738 223.54926737 63.94192768 222.81171528 63.82720375 222.05181313 C63.71197554 221.28891157 63.59674732 220.52601002 63.47802734 219.73999023 C63.2312006 218.09221779 62.98461057 216.44440986 62.73823547 214.79656982 C62.07753634 210.38206782 61.41358396 205.96806093 60.74898481 201.55414462 C60.05171768 196.91936716 59.35752889 192.28412863 58.66299438 187.64894104 C57.35127374 178.89789878 56.0368398 170.14726638 54.72139704 161.39678293 C53.22227096 151.42350014 51.72622126 141.44975662 50.23041224 131.47597587 C47.1569978 110.98347444 44.07977749 90.49154605 41 70 C40.67 70 40.34 70 40 70 Z " fill="#4E0484" transform="translate(2558,81)"/>
<path d="M0 0 C0.89300308 -0.0049649 1.78600616 -0.00992981 2.70606995 -0.01504517 C5.68393718 -0.02973542 8.66175078 -0.03648759 11.63964844 -0.04199219 C13.71783448 -0.04774735 15.79602051 -0.05350503 17.87420654 -0.05926514 C22.25256599 -0.06980084 26.63090699 -0.0756236 31.00927734 -0.07910156 C36.56185877 -0.08452764 42.1141876 -0.10841591 47.66669083 -0.13707352 C51.97388351 -0.1559244 56.2810188 -0.16091772 60.58824921 -0.16243744 C62.63072814 -0.165425 64.67320705 -0.17331783 66.71564484 -0.18662262 C93.51889219 -0.34845056 120.98089325 1.91004938 141.60058594 21.13769531 C165.32752682 46.4269039 165.68653379 79.97691645 165.68432617 112.60327148 C165.68650445 116.1923423 165.70470055 119.78110074 165.72363281 123.37011719 C165.75149508 134.54610369 165.56898326 145.64595779 164.62011719 156.78613281 C164.50509102 158.14515465 164.50509102 158.14515465 164.38774109 159.53163147 C162.27868289 181.52444235 154.09026577 202.78403954 136.92480469 217.34472656 C110.82722698 236.39554859 82.78841531 233.16113281 50.49902344 233.16113281 C50.49902344 279.36113281 50.49902344 325.56113281 50.49902344 373.16113281 C30.69902344 373.16113281 10.89902344 373.16113281 -9.50097656 373.16113281 C-9.52355992 325.78755408 -9.54147371 278.41397664 -9.55204189 231.04039359 C-9.55329267 225.45376825 -9.55458699 219.86714291 -9.5559082 214.28051758 C-9.55617051 213.16827119 -9.55643282 212.05602481 -9.55670308 210.91007399 C-9.56106024 192.87560558 -9.56894804 174.84114035 -9.57812936 156.80667383 C-9.58746463 138.3162763 -9.5930319 119.82588043 -9.59506506 101.33548063 C-9.59644055 89.91616494 -9.60079255 78.49685821 -9.60889303 67.07754528 C-9.61415892 59.25818646 -9.61578122 51.43883232 -9.61447794 43.61947186 C-9.61383431 39.10097226 -9.61485483 34.58248838 -9.62018204 30.06399155 C-9.62501548 25.93440372 -9.62531558 21.80484232 -9.62187546 17.67525332 C-9.62144971 16.17457198 -9.62274591 14.67388904 -9.62585974 13.17321087 C-9.6298229 11.14675853 -9.62713329 9.12029633 -9.62402439 7.09384251 C-9.62440411 5.96417452 -9.62478383 4.83450654 -9.62517506 3.6706062 C-9.3564559 -1.75895697 -4.28426649 0.0056229 0 0 Z M50.49902344 54.16113281 C50.49902344 95.41113281 50.49902344 136.66113281 50.49902344 179.16113281 C76.66413677 181.82493612 76.66413677 181.82493612 98.93652344 171.84863281 C104.31627572 164.75161498 105.64606131 157.35972709 105.66015625 148.60791016 C105.66512115 147.86407074 105.67008606 147.12023132 105.67520142 146.35385132 C105.68976216 143.90158141 105.69661631 141.44937629 105.70214844 138.99707031 C105.70497581 138.15484547 105.70780319 137.31262062 105.71071625 136.44487381 C105.72568761 131.98424213 105.73492888 127.52364259 105.73925781 123.06298828 C105.74472665 118.48030404 105.76872686 113.89791929 105.79722977 109.3153286 C105.81596242 105.77030615 105.82106746 102.22535415 105.82259369 98.68028641 C105.8255989 96.99238073 105.83355436 95.30447565 105.84677887 93.61661911 C106.0983123 76.27900899 106.0983123 76.27900899 98.49902344 61.16113281 C85.675063 50.21384951 65.21550503 54.16113281 50.49902344 54.16113281 Z " fill="#4F0684" transform="translate(754.5009765625,80.8388671875)"/>
<path d="M0 0 C25.56234917 -0.62372338 50.2558706 2.42511957 69.51904297 20.76513672 C70.27958984 21.52310547 71.04013672 22.28107422 71.82373047 23.06201172 C72.52240234 23.73748047 73.22107422 24.41294922 73.94091797 25.10888672 C90.3357727 42.07788033 95.23528683 67.14561998 95.01904297 89.92529297 C95.01702881 90.95408569 95.01501465 91.98287842 95.01293945 93.04284668 C95.00261714 96.82011489 94.97469688 100.59731865 94.94873047 104.37451172 C94.90748047 112.85138672 94.86623047 121.32826172 94.82373047 130.06201172 C76.34373047 130.06201172 57.86373047 130.06201172 38.82373047 130.06201172 C38.57373047 105.87451172 38.57373047 105.87451172 38.52587891 98.32299805 C38.61846953 78.85232645 38.61846953 78.85232645 29.82373047 62.06201172 C22.77441237 56.22028559 15.35832189 54.77700114 6.38623047 55.12451172 C-1.14336689 55.88187473 -7.93106052 58.20066021 -13.11376953 63.93701172 C-18.33337233 71.84550081 -19.32544432 78.86590348 -19.32344055 88.04174805 C-19.32711724 88.94747999 -19.33079393 89.85321194 -19.33458203 90.7863903 C-19.34559755 93.82228029 -19.34945913 96.85813601 -19.35327148 99.89404297 C-19.35953783 102.07070524 -19.36618479 104.24736645 -19.3731842 106.42402649 C-19.39420981 113.57418068 -19.40458646 120.72433504 -19.41455078 127.87451172 C-19.41859915 130.33860282 -19.4227161 132.8026938 -19.42690086 135.26678467 C-19.44595068 146.84626179 -19.46018113 158.42573255 -19.46851283 170.00522232 C-19.47827928 183.35730207 -19.50458434 196.70919803 -19.54501373 210.06122112 C-19.57521216 220.39010347 -19.58998533 230.71893833 -19.59329385 241.04786396 C-19.59564041 247.21253644 -19.60454963 253.3770315 -19.62975502 259.54165649 C-19.65310527 265.34637612 -19.65724091 271.15080238 -19.64699364 276.95555687 C-19.64649983 279.07868617 -19.65277415 281.20183026 -19.66654968 283.32491493 C-20.29217412 301.33179504 -20.29217412 301.33179504 -13.29456043 317.36282349 C-7.17658679 323.33637692 0.57036322 325.64174234 8.94873047 326.31201172 C17.8680394 325.73657243 25.75359932 323.36472179 32.01123047 316.74951172 C36.55358884 310.01429069 37.91899518 303.59069614 38.02905273 295.61938477 C38.04899796 294.3384343 38.06894318 293.05748383 38.0894928 291.73771667 C38.10647325 290.34972248 38.1233522 288.96172704 38.14013672 287.57373047 C38.16072471 286.14597497 38.18172165 284.71822531 38.20310974 283.29048157 C38.25814 279.54394277 38.30763274 275.79735071 38.35595703 272.05072021 C38.41517464 267.54934654 38.48129718 263.04806959 38.54625702 258.54677582 C38.64402671 251.71858051 38.7330465 244.89032137 38.82373047 238.06201172 C57.30373047 238.06201172 75.78373047 238.06201172 94.82373047 238.06201172 C94.9440569 253.81140418 94.9440569 253.81140418 94.97021484 260.64404297 C94.98799003 265.26475659 95.00876716 269.88528812 95.05004883 274.50585938 C95.39667166 314.39390227 95.39667166 314.39390227 89.07373047 330.93701172 C88.81551514 331.63205811 88.5572998 332.32710449 88.29125977 333.04321289 C82.30840934 348.57640556 72.24512171 361.53629562 57.82373047 370.06201172 C56.93427734 370.59439453 56.04482422 371.12677734 55.12841797 371.67529297 C31.3701725 384.71967025 -1.54443484 384.35734442 -26.96142578 376.96044922 C-45.47824891 370.82118166 -60.01660263 358.39322216 -69.54345703 341.39013672 C-79.68447721 320.71992335 -80.32813212 298.15345695 -80.3215332 275.61621094 C-80.32453002 273.56485432 -80.32793375 271.51349827 -80.33171082 269.46214294 C-80.34050256 263.91843029 -80.34288691 258.37473311 -80.3435266 252.83101416 C-80.34423993 249.35866608 -80.34637961 245.88632187 -80.34902382 242.41397476 C-80.3582618 230.27484134 -80.36236071 218.13571885 -80.36157227 205.99658203 C-80.36097213 194.7222668 -80.37151534 183.44799951 -80.38731593 172.1736964 C-80.40043865 162.46030005 -80.40575417 152.74691928 -80.40511686 143.03351414 C-80.40486323 137.24722868 -80.40763919 131.46098586 -80.41829491 125.67470932 C-80.4280557 120.22615767 -80.42800099 114.77768874 -80.42077827 109.32913399 C-80.41974223 107.34356247 -80.42203611 105.35798558 -80.42813873 103.37242317 C-80.51533764 73.00412643 -76.79110334 43.84029381 -55.04736328 20.70654297 C-40.16659885 7.00004294 -19.9574784 0.56867843 0 0 Z " fill="#4E0584" transform="translate(1297.17626953125,76.93798828125)"/>
<path d="M0 0 C129.06739266 0 129.06739266 0 151.2109375 21.98828125 C170.85034059 42.59278215 174.13616238 69.31422903 174.203125 96.4609375 C174.20736607 97.63435133 174.20736607 97.63435133 174.21169281 98.83147049 C174.22660876 102.97830786 174.23588394 107.12511117 174.24023438 111.27197266 C174.24460425 114.65619781 174.2584484 118.0401659 174.28125 121.42431641 C174.71253057 186.77271496 174.71253057 186.77271496 151.53369141 211.69702148 C138.27595176 225.13043397 122.32828162 229.33434368 104 233 C89.15 233 74.3 233 59 233 C59 279.2 59 325.4 59 373 C39.53 373 20.06 373 0 373 C0 249.91 0 126.82 0 0 Z M59 54 C59 95.25 59 136.5 59 179 C85.37696295 181.62406902 85.37696295 181.62406902 106.8125 172.75 C115.57694456 161.73184113 115.311427 148.37987664 115.265625 134.84765625 C115.26697728 133.41621332 115.26892245 131.98477085 115.27142334 130.55332947 C115.27434914 127.57237315 115.27016055 124.5915378 115.26074219 121.6105957 C115.24935961 117.82761763 115.25591582 114.04492387 115.26788712 110.26195621 C115.27518405 107.3113346 115.2727821 104.36077814 115.26763153 101.41015434 C115.26631603 100.01698204 115.26786725 98.62380342 115.27259064 97.2306385 C115.70338725 79.21615147 115.70338725 79.21615147 109 63 C94.88212255 49.77003937 78.31924283 54 59 54 Z " fill="#4D0383" transform="translate(2281,81)"/>
<path d="M0 0 C52.8 0 105.6 0 160 0 C160 17.82 160 35.64 160 54 C126.67 54 93.34 54 59 54 C59 87.99 59 121.98 59 157 C85.73 157 112.46 157 140 157 C140 174.82 140 192.64 140 211 C113.27 211 86.54 211 59 211 C59 246.64 59 282.28 59 319 C92.33 319 125.66 319 160 319 C160 336.82 160 354.64 160 373 C107.2 373 54.4 373 0 373 C0 249.91 0 126.82 0 0 Z " fill="#4D0383" transform="translate(1713,81)"/>
<path d="M0 0 C0.4375 3.125 0.4375 3.125 0 7 C-2.29863893 9.40312251 -4.31976276 11.09395291 -7 13 C-21.81889705 23.71423097 -35.79889443 35.34871488 -40 54 C-41.28384339 69.2120513 -38.53197726 81.71510512 -29 94 C2.16916813 130.48668044 57.56171255 142.54389409 103.23168945 146.26318359 C164.37636361 150.77442056 237.8535663 144.70520418 286.47265625 103.296875 C297.0993941 93.63919052 305.72564941 81.64697163 307.3359375 66.9296875 C307.5519836 50.03488213 300.74309028 36.98394282 289.21875 25.0390625 C283.07605303 19.00911124 275.76428657 14.11215494 268.578125 9.41796875 C267 8 267 8 266.6875 4.375 C267 1 267 1 268 0 C275.28341262 0.27259556 281.03658478 2.91662633 287.5625 6 C289.15650635 6.74431274 289.15650635 6.74431274 290.78271484 7.50366211 C299.20491299 11.49719946 307.2502416 15.82310797 315 21 C315.59458008 21.39541992 316.18916016 21.79083984 316.80175781 22.19824219 C336.44327702 35.40781858 354.39299933 52.69891925 359.56640625 76.734375 C362.00809679 95.12404431 357.94311107 111.85220728 346.625 126.75 C345.43116424 128.1789052 344.22230798 129.59537297 343 131 C342.34515625 131.79792969 341.6903125 132.59585938 341.015625 133.41796875 C331.02985849 145.17128882 318.15584908 153.22848715 305 161 C303.88882812 161.66644531 302.77765625 162.33289063 301.6328125 163.01953125 C265.2368987 183.65508977 222.09177806 192.16353944 181 197 C179.99630371 197.11859375 178.99260742 197.2371875 177.95849609 197.359375 C100.04633894 206.0349292 2.21636992 196.09818441 -61 146 C-72.33873098 136.76091655 -81.65697309 126.24858526 -88 113 C-88.39058594 112.21238281 -88.78117188 111.42476563 -89.18359375 110.61328125 C-95.35029362 96.94715149 -95.45605905 81.09380708 -90.33984375 67.12890625 C-85.19169424 55.10655127 -78.23341454 46.10423071 -69 37 C-67.94232422 35.92685547 -67.94232422 35.92685547 -66.86328125 34.83203125 C-52.12408396 20.78780593 -21.18610668 -1.18233175 0 0 Z " fill="#4E0584" transform="translate(249,227)"/>
<path d="M0 0 C0.7013488 0.00291284 1.4026976 0.00582568 2.12529939 0.00882679 C3.2352655 0.00754515 3.2352655 0.00754515 4.36765516 0.00623763 C6.86590905 0.00458062 9.3640969 0.01010778 11.86234468 0.01555592 C13.64572072 0.01583777 15.42909688 0.0156801 17.21247286 0.01511341 C22.06970682 0.01482535 26.92691632 0.02072343 31.78414458 0.02768737 C36.8543944 0.03391952 41.92464472 0.0345246 46.99489778 0.03571278 C56.60322185 0.03882651 66.21153459 0.04704045 75.81985366 0.05706227 C86.7555802 0.06822212 97.69130726 0.07373353 108.62703806 0.0787577 C131.12922807 0.08922303 153.63140257 0.10756902 176.13358492 0.12908131 C176.13358492 17.94908131 176.13358492 35.76908131 176.13358492 54.12908131 C156.00358492 54.12908131 135.87358492 54.12908131 115.13358492 54.12908131 C115.13358492 159.39908131 115.13358492 264.66908131 115.13358492 373.12908131 C95.66358492 373.12908131 76.19358492 373.12908131 56.13358492 373.12908131 C56.13358492 267.85908131 56.13358492 162.58908131 56.13358492 54.12908131 C35.67358492 54.12908131 15.21358492 54.12908131 -5.86641508 54.12908131 C-5.88704008 45.40470631 -5.90766508 36.68033131 -5.92891508 27.69158131 C-5.93801909 24.93371266 -5.94712309 22.175844 -5.95650297 19.33440357 C-5.95942192 17.16309873 -5.96197053 14.99179335 -5.96407133 12.82048756 C-5.9691873 11.68123829 -5.97430327 10.54198902 -5.97957426 9.36821705 C-5.97969511 8.29229298 -5.97981596 7.21636891 -5.97994047 6.10784107 C-5.98216109 5.16852238 -5.9843817 4.22920368 -5.9866696 3.26142079 C-5.75703324 -0.81046511 -3.5402602 0.01114465 0 0 Z " fill="#4D0383" transform="translate(1930.8664150834084,80.8709186911583)"/>
<path d="M0 0 C19.8 0 39.6 0 60 0 C60 105.27 60 210.54 60 319 C91.68 319 123.36 319 156 319 C156 336.82 156 354.64 156 373 C104.52 373 53.04 373 0 373 C0 249.91 0 126.82 0 0 Z " fill="#4F0685" transform="translate(2763,81)"/>
<path d="M0 0 C11.88 0.33 23.76 0.66 36 1 C46.89 0.67 57.78 0.34 69 0 C69 41.91 69 83.82 69 127 C56.61867704 120.24655111 56.61867704 120.24655111 51.53125 117.2578125 C49.82739136 116.25814453 49.82739136 116.25814453 48.08911133 115.23828125 C46.89270727 114.53391125 45.69633759 113.82948287 44.5 113.125 C43.24314044 112.38662042 41.98622204 111.648341 40.72924805 110.91015625 C30.57071441 104.94042267 20.43230044 98.93657755 10.3046875 92.91455078 C9.24121094 92.28274902 8.17773438 91.65094727 7.08203125 91 C6.14593018 90.443125 5.2098291 89.88625 4.24536133 89.3125 C2.85416075 88.49928979 1.44131881 87.72065941 0 87 C0 58.29 0 29.58 0 0 Z " fill="#9572DB" transform="translate(348,438)"/>
<path d="M0 0 C58.05313518 0 58.05313518 0 68.875 10.6484375 C76.18393618 18.73663525 79.69931178 28.42431585 79.28125 39.3984375 C77.95684505 51.64918325 73.60604286 60.6023679 64.1015625 68.4921875 C60.90087984 70.78858807 57.59403457 72.39552028 54 74 C54.60585937 74.71542969 55.21171875 75.43085937 55.8359375 76.16796875 C60.74548663 82.00655564 65.53793371 87.90403872 70.15527344 93.9765625 C72.4293827 96.96569903 74.72956959 99.9289949 77.07421875 102.86328125 C77.58283447 103.50152832 78.0914502 104.13977539 78.61547852 104.79736328 C79.60558524 106.03711846 80.59944424 107.27388822 81.59741211 108.50732422 C85 112.77827768 85 112.77827768 85 115 C74.67677667 117.30245313 61.92588251 119.83152424 52 115 C40.66271091 105.94926553 33.66501322 90.52031496 27 78 C26.67 90.21 26.34 102.42 26 115 C17.42 115 8.84 115 0 115 C0 77.05 0 39.1 0 0 Z M26 21 C26 31.89 26 42.78 26 54 C38.63757641 54.87343917 38.63757641 54.87343917 49 50 C53.08497065 45.49605801 54.24247303 40.96079543 54 35 C52.84188565 28.78627111 50.13230396 25.52845897 45 22 C38.98335642 19.99445214 32.3420992 21 26 21 Z " fill="#6B3A9C" transform="translate(2127,539)"/>
<path d="M0 0 C57.48888889 0 57.48888889 0 68 10 C75.61512042 18.12075215 78.9841041 26.87286863 79 38 C78.25257511 49.03470927 75.36308309 58.69349671 67.11328125 66.39453125 C63.0582935 69.47512268 58.55468983 71.75148224 54 74 C54.71542969 74.88558594 55.43085937 75.77117187 56.16796875 76.68359375 C63.94005531 86.33474772 71.52036877 96.1208339 79 106 C79.5662207 106.74137207 80.13244141 107.48274414 80.71582031 108.24658203 C81.54098145 109.33302002 81.54098145 109.33302002 82.3828125 110.44140625 C82.88441895 111.09955322 83.38602539 111.7577002 83.90283203 112.43579102 C85 114 85 114 85 115 C80.44726373 115.27382288 75.89939079 115.47230307 71.34033203 115.60424805 C69.79358419 115.65927006 68.24740097 115.73412755 66.70263672 115.82983398 C54.00398297 116.59634407 54.00398297 116.59634407 49.46875 112.98364258 C47.34344211 110.10008682 45.68346744 107.16096376 44 104 C42.89099456 102.30542484 41.7811929 100.61118851 40.64648438 98.93371582 C38.72194444 96.08768355 36.86829338 93.19568021 35 90.3125 C32.36 86.249375 29.72 82.18625 27 78 C26.67 90.21 26.34 102.42 26 115 C17.42 115 8.84 115 0 115 C0 77.05 0 39.1 0 0 Z M26 21 C26 31.89 26 42.78 26 54 C38.59007948 54.91774685 38.59007948 54.91774685 49 50 C53.01783068 45.07815741 53.63295936 40.95694348 53.390625 34.65625 C52.66795467 29.74209177 50.63971354 26.49064867 46.9375 23.125 C40.00741161 19.10107771 35.50866687 21 26 21 Z " fill="#6B3A9C" transform="translate(1551,539)"/>
<path d="M0 0 C8.58 0 17.16 0 26 0 C26.33 15.84 26.66 31.68 27 48 C30.63 42.72 34.26 37.44 38 32 C43.43605998 24.19848468 43.43605998 24.19848468 45.54418945 21.35375977 C48.10845573 17.86464998 50.28489131 14.55888811 52.04296875 10.59375 C54.29225749 5.99358149 56.26137543 2.31829839 61 0 C71.85223248 -1.86111785 83.08618533 -0.91002902 94 0 C92.85088919 3.10840744 91.72131029 5.6565172 89.6015625 8.20703125 C89.1286377 8.78493408 88.65571289 9.36283691 88.16845703 9.95825195 C87.4044458 10.87610474 87.4044458 10.87610474 86.625 11.8125 C81.81974699 17.6975933 77.18959496 23.67888413 72.66503906 29.78173828 C69.89377753 33.50726351 67.07938524 37.19064696 64.203125 40.8359375 C63.56616699 41.64442139 62.92920898 42.45290527 62.27294922 43.28588867 C61.03483885 44.85255855 59.79188782 46.41541863 58.54345703 47.97387695 C55.75098128 51.51098629 53.33075945 54.61886338 52 59 C52.59425781 59.70382812 53.18851563 60.40765625 53.80078125 61.1328125 C58.87164718 67.17368856 63.82911832 73.28248207 68.67871094 79.50219727 C72.24871304 84.07057923 75.89341268 88.57345984 79.5625 93.0625 C83.70678432 98.14121941 87.80522527 103.24977648 91.8125 108.4375 C92.23926025 108.98736572 92.66602051 109.53723145 93.10571289 110.10375977 C96 113.877201 96 113.877201 96 115 C65.04988156 117.51057821 65.04988156 117.51057821 57.42480469 113.71972656 C53.69554682 110.31685431 51.92228022 105.98462241 50.07568359 101.36572266 C48.13477721 97.09713826 45.2033342 93.52662015 42.375 89.8125 C37.10587108 82.63704994 32.07005856 75.32341792 27 68 C26.67 83.51 26.34 99.02 26 115 C17.42 115 8.84 115 0 115 C0 77.05 0 39.1 0 0 Z " fill="#6B3A9C" transform="translate(1916,539)"/>
<path d="M0 0 C0 41.58 0 83.16 0 126 C-3.5643876 125.1089031 -4.89754972 124.58097007 -7.6953125 122.515625 C-8.75492187 121.7412207 -8.75492187 121.7412207 -9.8359375 120.95117188 C-10.59132813 120.38978516 -11.34671875 119.82839844 -12.125 119.25 C-13.75248424 118.05712803 -15.38009181 116.86442431 -17.0078125 115.671875 C-17.83829102 115.06021484 -18.66876953 114.44855469 -19.52441406 113.81835938 C-23.33224217 111.02144579 -27.16646559 108.26151223 -31 105.5 C-32.4910273 104.42337355 -33.98191206 103.34654968 -35.47265625 102.26953125 C-38.5634413 100.03726028 -41.65463977 97.80556322 -44.74609375 95.57421875 C-49.1652031 92.38438959 -53.58320519 89.19303319 -58 86 C-58.60618164 85.56187988 -59.21236328 85.12375977 -59.83691406 84.67236328 C-61.41288872 83.53265241 -62.98774343 82.39139333 -64.5625 81.25 C-65.40941406 80.63640625 -66.25632812 80.0228125 -67.12890625 79.390625 C-69 78 -69 78 -70 77 C-70.09396057 75.06693502 -70.11743517 73.13041162 -70.11352539 71.19506836 C-70.11344986 69.95385727 -70.11337433 68.71264618 -70.11329651 67.43382263 C-70.10818911 66.0691626 -70.1029731 64.70450298 -70.09765625 63.33984375 C-70.095792 61.95121817 -70.09436813 60.56259193 -70.09336853 59.17396545 C-70.08954387 55.51278885 -70.07971403 51.8516517 -70.06866455 48.19049072 C-70.05844932 44.45707737 -70.05387067 40.72365766 -70.04882812 36.99023438 C-70.03809171 29.66013823 -70.02101591 22.33007464 -70 15 C-69.06019287 14.81937012 -68.12038574 14.63874023 -67.15209961 14.45263672 C-35.58684752 8.67000736 -35.58684752 8.67000736 -4.91455078 -0.53808594 C-3 -1 -3 -1 0 0 Z " fill="#9674DC" transform="translate(517,420)"/>
<path d="M0 0 C8.32145479 7.87870344 14.16483045 16.42150237 17.05078125 27.5234375 C13.04970663 27.74744254 9.05109556 27.90989098 5.04516602 28.01782227 C3.68579504 28.06283882 2.32685405 28.12408292 0.96899414 28.20239258 C-10.35294644 28.83855009 -10.35294644 28.83855009 -14.30419922 25.58325195 C-16.1328125 23.171875 -16.1328125 23.171875 -17.55249023 20.75927734 C-20.45332963 16.11570328 -25.33093202 14.16464545 -30.26171875 12.2109375 C-40.37131875 10.32609682 -49.50364213 11.28494929 -58.2421875 17.03125 C-64.90347264 22.4052699 -68.66363025 29.34921487 -70.94921875 37.5234375 C-72.12815535 49.16388521 -70.77751712 59.17654547 -63.76171875 68.8984375 C-56.77654842 75.41792981 -49.15156207 79.22582001 -39.5859375 79.62109375 C-31.59725251 79.30256564 -23.79967347 76.04510576 -17.890625 70.640625 C-15.94876433 68.41470318 -14.27309875 66.17119751 -12.94921875 63.5234375 C-3.04921875 63.5234375 6.85078125 63.5234375 17.05078125 63.5234375 C10.17724998 80.70726567 1.67062971 92.23307645 -15.4921875 100.1171875 C-31.13456221 106.48018738 -47.81247836 106.63000216 -63.375 100.08203125 C-78.90275437 93.08511197 -89.93127136 81.29802607 -95.984375 65.33984375 C-96.46197266 63.94572266 -96.46197266 63.94572266 -96.94921875 62.5234375 C-97.19542969 61.81058594 -97.44164062 61.09773437 -97.6953125 60.36328125 C-101.87131841 45.41606008 -98.89342874 28.89129166 -91.7265625 15.46875 C-82.88364161 0.81476681 -69.48149812 -9.09773741 -52.8359375 -13.25390625 C-33.83613073 -16.8033207 -14.86037991 -12.4787826 0 0 Z " fill="#6D3D9E" transform="translate(1874.94921875,551.4765625)"/>
<path d="M0 0 C7.59 0 15.18 0 23 0 C24.28132813 3.21492187 25.56265625 6.42984375 26.8828125 9.7421875 C38.56447282 39.04752158 38.56447282 39.04752158 50.5 68.25 C55.01816273 79.16393696 59.48303374 90.09709672 63.875 101.0625 C64.13901611 101.72004272 64.40303223 102.37758545 64.67504883 103.05505371 C65.40773013 104.88096593 66.13754104 106.70802917 66.8671875 108.53515625 C67.28081543 109.570354 67.69444336 110.60555176 68.12060547 111.67211914 C69 114 69 114 69 115 C59.43 115 49.86 115 40 115 C38.845 111.761875 37.69 108.52375 36.5 105.1875 C36.13455078 104.17067139 35.76910156 103.15384277 35.39257812 102.10620117 C35.10833984 101.30158447 34.82410156 100.49696777 34.53125 99.66796875 C34.09135742 98.43469849 34.09135742 98.43469849 33.64257812 97.17651367 C33 95 33 95 33 92 C18.81 92 4.62 92 -10 92 C-10.99 95.3 -11.98 98.6 -13 102 C-14.65 106.29 -16.3 110.58 -18 115 C-27.24 115 -36.48 115 -46 115 C-45.12003545 110.60017726 -43.84563917 106.82458665 -42.1484375 102.71875 C-41.85787979 102.00560135 -41.56732208 101.2924527 -41.26795959 100.55769348 C-40.30772401 98.20343744 -39.3413451 95.8517541 -38.375 93.5 C-37.69623788 91.83897292 -37.01794152 90.17775545 -36.34008789 88.51635742 C-34.93012465 85.06146048 -33.51815068 81.60739491 -32.10498047 78.15380859 C-30.11238618 73.28014032 -28.13347126 68.40103297 -26.16015625 63.51953125 C-25.85087189 62.75452805 -25.54158752 61.98952484 -25.22293091 61.20133972 C-24.60275783 59.66731974 -23.98258975 58.13329774 -23.36242676 56.59927368 C-17.991375 43.31997379 -12.57690096 30.05880623 -7.125 16.8125 C-6.81964325 16.07005035 -6.5142865 15.32760071 -6.19967651 14.56265259 C-5.34499639 12.48538945 -4.48916335 10.4086061 -3.6328125 8.33203125 C-3.14699707 7.15358643 -2.66118164 5.9751416 -2.16064453 4.76098633 C-1.48527594 3.15439328 -0.77939258 1.55878516 0 0 Z M11 33 C7.47738004 40.87508789 4.53827989 48.92473868 1.6875 57.0625 C1.32591797 58.08609619 0.96433594 59.10969238 0.59179688 60.16430664 C0.0880957 61.6163147 0.0880957 61.6163147 -0.42578125 63.09765625 C-0.72911377 63.96914307 -1.03244629 64.84062988 -1.3449707 65.73852539 C-2.13910583 68.08785524 -2.13910583 68.08785524 -2 71 C6.91 71 15.82 71 25 71 C23.5975 66.771875 22.195 62.54375 20.75 58.1875 C20.31655273 56.8780542 19.88310547 55.5686084 19.43652344 54.21948242 C17.0698852 47.10293902 14.60978297 40.03111529 12 33 C11.67 33 11.34 33 11 33 Z " fill="#6C3B9D" transform="translate(1691,539)"/>
<path d="M0 0 C22.11 0 44.22 0 67 0 C67 7.92 67 15.84 67 24 C53.47 24 39.94 24 26 24 C26 31.26 26 38.52 26 46 C38.87 46 51.74 46 65 46 C65 53.92 65 61.84 65 70 C52.13 70 39.26 70 26 70 C26 77.26 26 84.52 26 92 C39.53 92 53.06 92 67 92 C67 99.59 67 107.18 67 115 C44.89 115 22.78 115 0 115 C0 77.05 0 39.1 0 0 Z " fill="#6A399C" transform="translate(2030,539)"/>
<path d="M0 0 C30.03 0 60.06 0 91 0 C91 7.92 91 15.84 91 24 C80.11 24 69.22 24 58 24 C58 54.03 58 84.06 58 115 C49.42 115 40.84 115 32 115 C32 84.97 32 54.94 32 24 C21.44 24 10.88 24 0 24 C0 16.08 0 8.16 0 0 Z " fill="#6B3A9C" transform="translate(1439,539)"/>
<path d="M0 0 C6.01212627 1.48043336 12.01312011 2.98941441 17.98828125 4.61328125 C35.23334289 9.26753072 52.43439271 12.74122218 70 16 C70 32.17 70 48.34 70 65 C64.16969866 61.7609437 58.55114054 58.52411356 53 54.875 C51.51046847 53.90356639 50.02088362 52.93221455 48.53125 51.9609375 C47.77972656 51.46948242 47.02820313 50.97802734 46.25390625 50.47167969 C42.67685227 48.13605562 39.08798773 45.81877607 35.5 43.5 C34.09242658 42.58857461 32.68487458 41.67711616 31.27734375 40.765625 C27.61199529 38.39348234 23.94075227 36.03065515 20.26538086 33.67407227 C18.81069855 32.73367973 17.36210699 31.78378968 15.92016602 30.82397461 C12.88927514 28.80970026 10.01498712 27.00703078 6.7109375 25.45703125 C3.54943968 23.86737671 1.94323391 22.98242134 0 20 C-1.17091634 13.40732537 -0.609991 6.6301329 0 0 Z " fill="#9877DC" transform="translate(248,419)"/>
<path d="M0 0 C0 22.77 0 45.54 0 69 C-4.02163999 66.58701601 -6.77468232 64.52529872 -10.125 61.375 C-13.8261671 57.9516685 -17.57310976 54.66176549 -21.5 51.5 C-26.4519656 47.509927 -31.13024215 43.29641762 -35.78515625 38.96875 C-37.83679121 36.97328212 -37.83679121 36.97328212 -40 36 C-40 35.01 -40 34.02 -40 33 C-37.9453125 31.0546875 -37.9453125 31.0546875 -35.125 28.875 C-31.3021101 25.85384149 -27.59246564 22.79213089 -24 19.5 C-19.64433398 15.53211983 -15.13973997 11.78984295 -10.55859375 8.0859375 C-8.29469134 6.24025218 -6.07716799 4.35595309 -3.875 2.4375 C-1 0 -1 0 0 0 Z " fill="#9670BA" transform="translate(675,289)"/>
<path d="M0 0 C8.90510949 6.67883212 8.90510949 6.67883212 12.8125 10.3125 C16.26980431 13.47376602 19.79053355 16.49706836 23.4375 19.4375 C29.170343 24.07291305 34.59362514 28.99099892 40 34 C35.82797147 39.29960381 31.26470658 43.34666518 25.99609375 47.54296875 C22.86442886 50.11117894 19.89677974 52.80060093 16.9375 55.5625 C2.49001486 69 2.49001486 69 0 69 C0 46.23 0 23.46 0 0 Z " fill="#AC88B0" transform="translate(90,289)"/>
<path d="M0 0 C0 15.18 0 30.36 0 46 C-5.04635517 42.21523363 -9.52521096 38.75027345 -14.0625 34.5 C-18.29344562 30.56275854 -22.57626609 26.71995806 -27 23 C-23.23388659 17.93522679 -18.78819068 14.24948486 -13.86328125 10.32421875 C-10.3745417 7.4922951 -7.07068957 4.48872288 -3.77734375 1.43359375 C-2 0 -2 0 0 0 Z " fill="#67349A" transform="translate(675,301)"/>
<path d="M0 0 C2.31 1.98 4.62 3.96 7 6 C8.78661342 7.46451973 10.57793853 8.92331972 12.375 10.375 C17.37562236 14.44881268 22.22095865 18.66936253 27 23 C24.28202769 26.61345275 21.4896234 29.3991616 17.9375 32.1875 C12.78826587 36.30411517 7.93957653 40.64121561 3.1171875 45.12890625 C1 47 1 47 0 47 C0 31.49 0 15.98 0 0 Z " fill="#663399" transform="translate(90,300)"/>
<path d="M0 0 C0.66 0.33 1.32 0.66 2 1 C1.18818425 1.58239535 0.3763685 2.16479071 -0.46004772 2.7648344 C-3.84143548 6.19058769 -3.61153788 9.72021947 -3.67157966 14.34030229 C-3.65556977 16.03436418 -3.65556977 16.03436418 -3.63923645 17.76264954 C-3.65176996 19.56990431 -3.65176996 19.56990431 -3.66455668 21.41366929 C-3.6827107 24.75491724 -3.67850006 28.09478692 -3.6648711 31.43596709 C-3.65561058 35.03992745 -3.67515048 38.64374494 -3.69119263 42.24766541 C-3.71503989 48.4905803 -3.72063958 54.73329776 -3.71384621 60.9762516 C-3.70405055 70.00246888 -3.72177358 79.02846707 -3.74621352 88.0546489 C-3.78511815 102.6989537 -3.80176694 117.3431959 -3.80444336 131.98754883 C-3.80709085 146.21316744 -3.82020529 160.43871288 -3.84741211 174.66430664 C-3.84908549 175.54116972 -3.85075887 176.41803281 -3.85248295 177.3214675 C-3.86094242 181.72043162 -3.86960784 186.11939531 -3.87837565 190.51835883 C-3.95084711 227.01222827 -3.98720951 263.50606328 -4 300 C-1.69 300 0.62 300 3 300 C3 300.33 3 300.66 3 301 C0.36 301 -2.28 301 -5 301 C-5 250.51 -5 200.02 -5 148 C-14.9 148.99 -14.9 148.99 -25 150 C-25.66 149.34 -26.32 148.68 -27 148 C-16.11 147.01 -16.11 147.01 -5 146 C-5.01110306 144.22989563 -5.02220612 142.45979126 -5.03364563 140.63604736 C-5.13487346 123.9786724 -5.21019471 107.32135948 -5.25906086 90.66374588 C-5.28485258 82.09927271 -5.32002135 73.53502901 -5.37719727 64.97070312 C-5.42700291 57.50681175 -5.45928398 50.04308654 -5.47044247 42.57903361 C-5.47696615 38.62606028 -5.49231793 34.67356236 -5.52865028 30.72074127 C-5.56256544 27.00079552 -5.57306238 23.28152137 -5.56553841 19.5614357 C-5.56757185 17.54393199 -5.59449052 15.52650159 -5.62210083 13.50918579 C-5.61522751 12.30887726 -5.60835419 11.10856873 -5.60127258 9.87188721 C-5.60588155 8.82841755 -5.61049051 7.78494789 -5.61523914 6.70985794 C-4.78755286 3.06426377 -3.04277475 2.01788147 0 0 Z " fill="#A98CDE" transform="translate(353,59)"/>
<path d="M0 0 C5.76811336 4.06577618 10.93556555 8.61458154 16.11328125 13.40234375 C19.84619729 16.76146306 23.74372267 19.88531641 27.6875 22.9921875 C29.83360513 24.85552878 31.40521239 26.6602787 33 29 C30.98065427 30.87662505 28.95989181 32.75166127 26.9375 34.625 C26.3398584 35.17897461 25.7422168 35.73294922 25.12646484 36.30371094 C22.18010763 39.02478207 19.2227183 41.70061345 16.125 44.25 C13.61421841 46.34541772 11.54716847 48.6263471 9.4375 51.125 C6.57144831 54.50979408 3.81847868 56.76479297 0 59 C-0.36328125 55.8671875 -0.36328125 55.8671875 0 52 C1.9103925 49.67351248 3.5372959 48.01173136 5.8125 46.125 C6.39620361 45.61396729 6.97990723 45.10293457 7.58129883 44.57641602 C12.23064099 40.53824907 17.01496019 36.64563159 21.85546875 32.83984375 C24.19485326 31.00055866 24.19485326 31.00055866 26 28 C20.00680668 22.50082262 13.90239675 17.21313773 7.54296875 12.140625 C0.09696856 5.872717 0.09696856 5.872717 -0.3125 2.1875 C-0.209375 1.465625 -0.10625 0.74375 0 0 Z " fill="#936ECB" transform="translate(90,295)"/>
<path d="M0 0 C0.66 0.33 1.32 0.66 2 1 C1.45730469 1.51949219 0.91460938 2.03898437 0.35546875 2.57421875 C-3.38157385 6.21699361 -6.32998848 9.50952608 -9 14 C-10.91758063 15.80302387 -12.91819115 17.38081534 -15 19 C-11.27811655 24.00529154 -6.90866397 27.61323256 -2.046875 31.49609375 C2.18586345 34.97453651 6.1713265 38.68511231 10.17578125 42.421875 C13.05005834 45.04569641 15.99317397 47.53058305 19 50 C18.67 51.32 18.34 52.64 18 54 C12.35207977 49.47729405 6.82357894 44.90107268 1.5 40 C-4.44447305 34.53176513 -10.63640131 29.37799821 -17.0234375 24.43359375 C-18.40004696 23.35104875 -19.71048946 22.18495563 -21 21 C-21 20.01 -21 19.02 -21 18 C-18.9453125 16.0546875 -18.9453125 16.0546875 -16.125 13.875 C-10.53933286 9.46297498 -5.24323265 4.8110356 0 0 Z " fill="#AA8EDD" transform="translate(656,304)"/>
<path d="M0 0 C0.66 0 1.32 0 2 0 C2 8.25 2 16.5 2 25 C-1.73201018 23.13399491 -4.51622368 21.16748648 -7.75 18.5625 C-8.73484375 17.78003906 -9.7196875 16.99757813 -10.734375 16.19140625 C-11.48203125 15.46824219 -12.2296875 14.74507813 -13 14 C-13 13.01 -13 12.02 -13 11 C-10.6640625 8.80859375 -10.6640625 8.80859375 -7.625 6.4375 C-3.67969922 3.36808795 -3.67969922 3.36808795 0 0 Z " fill="#4D0383" transform="translate(673,311)"/>
<path d="M0 0 C4.01244766 2.4074686 6.92229757 4.56851376 10.3125 7.6875 C11.19550781 8.49574219 12.07851562 9.30398438 12.98828125 10.13671875 C13.65214844 10.75160156 14.31601563 11.36648438 15 12 C10.75358921 17.20185321 6.29331458 21.84367423 1 26 C0.67 26 0.34 26 0 26 C0 17.42 0 8.84 0 0 Z " fill="#4B0182" transform="translate(90,311)"/>
<path d="M0 0 C0.34765625 2.65625 0.34765625 2.65625 0 6 C-1.82426195 8.13279887 -3.4327753 9.73815404 -5.5625 11.5 C-6.1080957 11.9741333 -6.65369141 12.4482666 -7.21582031 12.93676758 C-8.79799957 14.30675475 -10.39713345 15.65433883 -12 17 C-13.41688901 18.22891036 -14.83360973 19.45801484 -16.25 20.6875 C-17.1575 21.450625 -18.065 22.21375 -19 23 C-19.66 22.67 -20.32 22.34 -21 22 C-17.72135921 16.82853567 -14.56396795 12.13941279 -10 8 C-9.24847656 7.31421875 -8.49695313 6.6284375 -7.72265625 5.921875 C-1.16925262 0 -1.16925262 0 0 0 Z " fill="#AF89A9" transform="translate(675,289)"/>
<path d="M0 0 C0.66 0.33 1.32 0.66 2 1 C0.61268631 5.56289878 -1.45224575 7.54718602 -5.1875 10.4375 C-6.1671875 11.20835937 -7.146875 11.97921875 -8.15625 12.7734375 C-9.0946875 13.50820313 -10.033125 14.24296875 -11 15 C-13.35524814 16.97614998 -15.67659023 18.9863782 -18 21 C-18.33 19.68 -18.66 18.36 -19 17 C-12.74987827 11.23223578 -6.510703 5.47490934 0 0 Z " fill="#A78ADD" transform="translate(109,337)"/>
<path d="M0 0 C0.66 0.33 1.32 0.66 2 1 C1.35125916 1.53703552 0.70251831 2.07407104 0.03411865 2.62738037 C-2.52122785 5.60796622 -2.51326025 7.07796962 -2.54589844 10.96191406 C-2.56561707 12.16285706 -2.58533569 13.36380005 -2.60565186 14.60113525 C-2.60688049 15.89291687 -2.60810913 17.18469849 -2.609375 18.515625 C-2.62436026 19.85514321 -2.64108815 21.19464296 -2.65948486 22.53411865 C-2.70313311 26.05221413 -2.7231514 29.57006041 -2.73822021 33.08837891 C-2.75780079 36.68146485 -2.79976958 40.27428202 -2.83984375 43.8671875 C-2.91511783 50.91135589 -2.96542602 57.95550475 -3 65 C-3.33 65 -3.66 65 -4 65 C-4.09264393 56.96807572 -4.16373571 48.93637431 -4.20724869 40.90404797 C-4.22813192 37.17436552 -4.25646182 33.44504836 -4.30175781 29.71557617 C-4.34519111 26.11698628 -4.36913156 22.51874791 -4.37950897 18.91991615 C-4.38690503 17.54633359 -4.401348 16.17277046 -4.42292023 14.79933739 C-4.45191442 12.87707629 -4.45363355 10.95446212 -4.45410156 9.03198242 C-4.46298401 7.93722092 -4.47186646 6.84245941 -4.48101807 5.71452332 C-4 3 -4 3 -1.97161865 1.1230011 C-1.3209845 0.75241074 -0.67035034 0.38182037 0 0 Z " fill="#C9B8ED" transform="translate(451,144)"/>
<path d="M0 0 C1.38594529 0.00031696 2.77191535 0.01163319 4.15771484 0.03173828 C4.88735443 0.03456818 5.61699402 0.03739807 6.3687439 0.04031372 C8.70221262 0.05152076 11.03529937 0.07662568 13.36865234 0.10205078 C14.94937597 0.11207993 16.53010561 0.1212059 18.11083984 0.12939453 C21.98859149 0.15146173 25.86605712 0.18599463 29.74365234 0.22705078 C29.41365234 0.88705078 29.08365234 1.54705078 28.74365234 2.22705078 C27.4276001 2.18777466 27.4276001 2.18777466 26.08496094 2.14770508 C22.80842477 2.06214169 19.53308676 1.99964211 16.25585938 1.95239258 C14.84160553 1.92735153 13.42747977 1.89330737 12.01367188 1.84985352 C2.84076773 1.18387599 2.84076773 1.18387599 -5.21728516 4.74658203 C-6.22662109 5.97441406 -6.22662109 5.97441406 -7.25634766 7.22705078 C-4.71486729 0.32874693 -4.71486729 0.32874693 0 0 Z " fill="#B197CB" transform="translate(1980.25634765625,538.77294921875)"/>
<path d="M0 0 C0.66 0.33 1.32 0.66 2 1 C1.45730469 1.51949219 0.91460938 2.03898437 0.35546875 2.57421875 C-4.13097222 6.90194926 -4.13097222 6.90194926 -7.75 11.9375 C-9 14 -9 14 -11.1875 14.8125 C-11.785625 14.874375 -12.38375 14.93625 -13 15 C-10.95236176 10.30607846 -8.69061159 7.44909565 -4.8125 4.125 C-3.91144531 3.34382813 -3.01039063 2.56265625 -2.08203125 1.7578125 C-1.39496094 1.17773438 -0.70789063 0.59765625 0 0 Z " fill="#B39AE0" transform="translate(656,304)"/>
<path d="M0 0 C0.66 0.33 1.32 0.66 2 1 C1.01 1.66 0.02 2.32 -1 3 C-0.67 2.01 -0.34 1.02 0 0 Z M-3 4 C-2.67 4.99 -2.34 5.98 -2 7 C-4.64 9.97 -7.28 12.94 -10 16 C-10.66 15.67 -11.32 15.34 -12 15 C-9.36113346 10.7973607 -6.63559661 7.43361902 -3 4 Z " fill="#A27AA5" transform="translate(659,302)"/>
<path d="M0 0 C0.66 0.33 1.32 0.66 2 1 C-2.29 5.29 -6.58 9.58 -11 14 C-11.66 13.67 -12.32 13.34 -13 13 C-11.58791833 11.39179588 -10.17013964 9.78859292 -8.75 8.1875 C-7.96109375 7.29417969 -7.1721875 6.40085937 -6.359375 5.48046875 C-4.34120555 3.35871775 -2.40083295 1.65745577 0 0 Z " fill="#8E60B1" transform="translate(1249,92)"/>
<path d="M0 0 C0.66 0.33 1.32 0.66 2 1 C-1.3 4.3 -4.6 7.6 -8 11 C-8.66 10.67 -9.32 10.34 -10 10 C-6.92118304 6.12948725 -3.99926986 2.97088618 0 0 Z " fill="#A182C0" transform="translate(1799,549)"/>
</svg>
