<?xml version="1.0" encoding="UTF-8"?>
<svg version="1.1" xmlns="http://www.w3.org/2000/svg" width="500" height="500">
<path d="M0 0 C0 31.02 0 62.04 0 94 C3.96 94.33 7.92 94.66 12 95 C12.66 95.33 13.32 95.66 14 96 C13.9371582 95.13834229 13.87431641 94.27668457 13.80957031 93.38891602 C13.60347109 90.1519843 13.45395858 86.9184132 13.34082031 83.67700195 C13.28091714 82.28232084 13.19933941 80.88837954 13.09472656 79.49633789 C12.25554489 68.03163528 12.25554489 68.03163528 16.33129883 63.28491211 C19.44466831 60.92651268 22.61862451 58.95189296 26 57 C27.91855759 55.69849718 29.82916819 54.38517922 31.73046875 53.05859375 C33.54707838 51.84795227 35.36606895 50.64087537 37.1875 49.4375 C38.12658203 48.81037109 39.06566406 48.18324219 40.03320312 47.53710938 C46.86607995 43 46.86607995 43 48 43 C48.33 63.13 48.66 83.26 49 104 C52.96 105.65 56.92 107.3 61 109 C73.91786136 115.3939515 86.9210306 123.79783036 92.0625 137.91796875 C94.78015278 147.49041536 94.41385235 154.69005348 89.62109375 163.4609375 C77.76552474 182.02990101 54.77621309 191.91080063 34.02197266 196.68505859 C20.95401881 199.50425236 8.08988893 202.11444978 -5.30859375 202.23828125 C-6.62228943 202.25297203 -6.62228943 202.25297203 -7.96252441 202.26795959 C-44.48333654 202.59220791 -81.61919234 199.39089447 -112 177 C-112.60199219 176.58234375 -113.20398438 176.1646875 -113.82421875 175.734375 C-120.46208371 170.78646516 -126.37624236 162.19000563 -128 154 C-129.45748983 142.71189 -126.2240515 134.28560001 -119.4375 125.3125 C-110.44327987 115.7372579 -96.39258417 108.13086139 -84 104 C-84.03254883 103.28980713 -84.06509766 102.57961426 -84.09863281 101.84790039 C-84.79684316 81.80045422 -84.79684316 81.80045422 -80.96484375 75.828125 C-78.43111195 73.98929855 -75.90332575 72.52079544 -73.09570312 71.14355469 C-68.60032409 68.69057759 -64.57014373 65.44822966 -60.4375 62.4375 C-58.71398041 61.19731628 -56.98391724 59.96615316 -55.24609375 58.74609375 C-54.50029053 58.21685303 -53.7544873 57.6876123 -52.98608398 57.14233398 C-51 56 -51 56 -48 56 C-48 69.2 -48 82.4 -48 96 C-43.545 95.01 -43.545 95.01 -39 94 C-35.9375 93.875 -35.9375 93.875 -34 94 C-34.04219162 93.15412323 -34.08438324 92.30824646 -34.12785339 91.43673706 C-34.510887 83.4074022 -34.79891095 75.38118824 -34.98443127 67.34477043 C-35.08304447 63.21363406 -35.21628802 59.09012218 -35.43334961 54.96337891 C-36.7942604 28.40247534 -36.7942604 28.40247534 -32.20471191 21.17144775 C-27.9115212 16.68968333 -23.00203998 13.82376873 -17.41937256 11.20974731 C-13.58032763 9.290128 -10.27593275 6.72096201 -6.875 4.125 C-1.19901296 0 -1.19901296 0 0 0 Z M-48 97 C-48.33 120.1 -48.66 143.2 -49 167 C-68.61476726 162.09630819 -68.61476726 162.09630819 -77 158 C-77.86302734 157.68836914 -78.72605469 157.37673828 -79.61523438 157.05566406 C-82.42400936 154.63450463 -82.39414071 154.08415175 -82.65942383 150.52856445 C-82.70059932 148.64051898 -82.71469686 146.7517601 -82.70703125 144.86328125 C-82.72215256 143.86870407 -82.73727386 142.87412689 -82.75285339 141.84941101 C-82.7958693 138.67021255 -82.80458194 135.49196098 -82.8125 132.3125 C-82.83563345 130.1581777 -82.86099636 128.00387811 -82.88867188 125.84960938 C-82.95166087 120.56639742 -82.98648511 115.28355756 -83 110 C-84.10698242 110.6194751 -85.21396484 111.2389502 -86.35449219 111.87719727 C-86.9771698 112.22565201 -87.59984741 112.57410675 -88.24139404 112.93312073 C-93.91337842 116.37409768 -99.63905363 122.41166654 -101.546875 128.84375 C-102.90586922 135.31068802 -102.66074996 141.30714317 -99.3046875 147.0703125 C-86.81565283 165.54211827 -63.97459759 171.63972252 -43.171875 175.7578125 C-23.35015074 178.75215808 -2.62159936 177.89297276 17 174 C17.68449219 173.86609863 18.36898437 173.73219727 19.07421875 173.59423828 C36.25289424 170.05820852 54.77590283 161.86638994 65 147 C67.87575157 141.34766071 68.77480268 136.12671611 67 130 C63.71271291 121.18871503 57.84897956 114.98108318 50 110 C49.34 110 48.68 110 48 110 C47.67 124.85 47.34 139.7 47 155 C37.6613327 159.66933365 29.79248838 163.25237361 20 166 C18.02 166.66 16.04 167.32 14 168 C14 144.57 14 121.14 14 97 C9.38 96.34 4.76 95.68 0 95 C0 119.75 0 144.5 0 170 C-11.22 170 -22.44 170 -34 170 C-34 145.25 -34 120.5 -34 95 C-38.71404521 95 -43.35009445 96.22501574 -48 97 Z " fill="#926FDA" transform="translate(267,64)"/>
<path d="M0 0 C0.2890625 2.2578125 0.2890625 2.2578125 0 5 C-1.9765625 6.9921875 -1.9765625 6.9921875 -4.625 8.875 C-11.31705702 13.92007269 -16.49234525 18.78046498 -19 27 C-19.92687132 33.98014202 -18.88679892 39.15140983 -15 45 C-14.62230469 45.58394531 -14.24460938 46.16789062 -13.85546875 46.76953125 C-1.88013116 62.79694681 23.77209638 68.48339116 42.5 71.3125 C61.34163675 73.2779265 80.41937471 72.68644098 99 69 C99.68449219 68.86609863 100.36898437 68.73219727 101.07421875 68.59423828 C114.88945954 65.75053228 129.65663039 59.84760898 140 50 C140.87205078 49.17048828 140.87205078 49.17048828 141.76171875 48.32421875 C146.17047031 43.68061844 148.80081217 38.39873127 149.09375 31.9296875 C148.50564131 24.43130169 144.53608188 17.04031335 139 12 C137.41006834 10.9775187 135.80485547 9.97852541 134.1875 9 C131.828125 7.5234375 131.828125 7.5234375 130 6 C129.4375 2.625 129.4375 2.625 130 0 C146.03000321 4.85654758 162.83214721 13.9321956 171.8125 28.55078125 C175.37322697 35.89478063 177.25912578 44.02246207 175 52 C169.1687432 68.16611817 155.34192604 77.12388068 140.5625 84.25 C120.65955359 92.90241862 98.44133625 98.03726403 76.69140625 98.23828125 C75.81560913 98.2480751 74.93981201 98.25786896 74.03747559 98.26795959 C37.51666346 98.59220791 0.38080766 95.39089447 -30 73 C-30.60199219 72.58234375 -31.20398438 72.1646875 -31.82421875 71.734375 C-38.46208371 66.78646516 -44.37624236 58.19000563 -46 50 C-47.45748983 38.71189 -44.2240515 30.28560001 -37.4375 21.3125 C-29.83867005 13.22278956 -11.58528327 0 0 0 Z " fill="#4B0082" transform="translate(185,168)"/>
<path d="M0 0 C11.22 0 22.44 0 34 0 C34 20.46 34 40.92 34 62 C30.00167172 60.40066869 26.62805237 58.73776272 22.9296875 56.59375 C22.36678009 56.26838257 21.80387268 55.94301514 21.22390747 55.60778809 C20.04143756 54.92351012 18.8598809 54.23765181 17.67919922 53.55029297 C15.87531864 52.50018549 14.06879321 51.45475618 12.26171875 50.41015625 C3.47696834 45.3179789 3.47696834 45.3179789 0 43 C-0.36076355 41.12704468 -0.36076355 41.12704468 -0.34057617 38.82568359 C-0.34034958 37.96494232 -0.34012299 37.10420105 -0.33988953 36.21737671 C-0.31666374 34.8220018 -0.31666374 34.8220018 -0.29296875 33.3984375 C-0.28872391 32.44683746 -0.28447906 31.49523743 -0.28010559 30.51480103 C-0.26327896 27.46791586 -0.22561954 24.42168609 -0.1875 21.375 C-0.17245831 19.31250954 -0.15876901 17.25000873 -0.14648438 15.1875 C-0.11591096 10.12454283 -0.05719715 5.06300715 0 0 Z " fill="#9370DB" transform="translate(233,272)"/>
<path d="M0 0 C0 20.46 0 40.92 0 62 C-7.88083136 57.4966678 -7.88083136 57.4966678 -11.3046875 55.01171875 C-12.05363281 54.46966797 -12.80257813 53.92761719 -13.57421875 53.36914062 C-14.33347656 52.81419922 -15.09273438 52.25925781 -15.875 51.6875 C-16.62652344 51.14416016 -17.37804687 50.60082031 -18.15234375 50.04101562 C-19.67576753 48.93437759 -21.18669475 47.81033768 -22.68481445 46.66967773 C-24.97903352 44.94589938 -24.97903352 44.94589938 -27.55541992 43.58227539 C-30.30308266 41.91560707 -32.07936898 40.58996657 -34 38 C-35.09633066 32.63835252 -34.85499331 27.49968699 -34.5625 22.0625 C-34.51730005 20.60103488 -34.47624502 19.13943534 -34.43945312 17.67773438 C-34.34081999 14.11567297 -34.18586193 10.55869987 -34 7 C-32.75126099 6.73521851 -32.75126099 6.73521851 -31.47729492 6.46508789 C-28.38520319 5.80858779 -25.29344513 5.15054414 -22.2019043 4.49145508 C-20.86447077 4.20665679 -19.52690646 3.92247193 -18.18920898 3.63891602 C-16.26511818 3.23094875 -14.34153637 2.82058327 -12.41796875 2.41015625 C-11.26063232 2.16402588 -10.1032959 1.91789551 -8.91088867 1.66430664 C-1.61815509 0 -1.61815509 0 0 0 Z " fill="#9370DB" transform="translate(315,263)"/>
<path d="M0 0 C2.97 0 5.94 0 9 0 C9.33 5.94 9.66 11.88 10 18 C10.84884766 16.17662109 10.84884766 16.17662109 11.71484375 14.31640625 C12.45561536 12.73171763 13.19650697 11.1470851 13.9375 9.5625 C14.31068359 8.76005859 14.68386719 7.95761719 15.06835938 7.13085938 C15.42607422 6.36708984 15.78378906 5.60332031 16.15234375 4.81640625 C16.48226318 4.10943604 16.81218262 3.40246582 17.15209961 2.67407227 C18 1 18 1 19 0 C21.67058851 -0.14115161 24.32432238 -0.04247107 27 0 C26.29348672 5.7546646 23.35350516 10.60658292 20.70703125 15.67382812 C18.44174776 20.24093193 17.37719225 22.94702213 19 28 C20.27142986 31.43234794 21.64734468 34.81214681 23.0625 38.1875 C23.80814446 39.97067368 24.54924517 41.75575614 25.28515625 43.54296875 C25.61394775 44.32696045 25.94273926 45.11095215 26.28149414 45.91870117 C27 48 27 48 27 51 C24.03 51 21.06 51 18 51 C15.69 45.39 13.38 39.78 11 34 C9.47893366 37.04213267 9.62570662 40.28047572 9.4375 43.625 C9.39431641 44.33140625 9.35113281 45.0378125 9.30664062 45.765625 C9.20055249 47.51018537 9.09977111 49.25506697 9 51 C6.03 51 3.06 51 0 51 C0 34.17 0 17.34 0 0 Z " fill="#4B0082" transform="translate(200,342)"/>
<path d="M0 0 C3.67930728 2.09215512 4.6704934 3.01148019 6 7 C6.10917588 9.82994889 6.16404724 12.63452575 6.16796875 15.46484375 C6.17129715 16.29456192 6.17462555 17.12428009 6.17805481 17.97914124 C6.18311561 19.73340297 6.1854634 21.48767433 6.18530273 23.24194336 C6.18748885 25.92382684 6.2056523 28.60529869 6.22460938 31.28710938 C6.22754355 32.99218609 6.22952818 34.69726477 6.23046875 36.40234375 C6.23765427 37.20349106 6.24483978 38.00463837 6.25224304 38.83006287 C6.22346564 45.85273791 6.22346564 45.85273791 4 49 C0.11365785 52.40054938 -3.67752853 52.45103329 -8.625 52.2890625 C-11.7531708 51.90833119 -13.62857254 51.07499902 -16 49 C-20.44483265 42.55499266 -19.18350784 33.06638031 -19.1875 25.625 C-19.19974609 24.43132812 -19.21199219 23.23765625 -19.22460938 22.0078125 C-19.2495128 6.9993504 -19.2495128 6.9993504 -15.125 1.5 C-10.19217549 -0.86775577 -5.36641723 -0.74966548 0 0 Z M-8 8 C-10.4286032 11.6429048 -10.25761901 13.41303841 -10.265625 17.75 C-10.26753845 18.40452148 -10.2694519 19.05904297 -10.27142334 19.73339844 C-10.27278245 21.11523829 -10.26910513 22.49709103 -10.26074219 23.87890625 C-10.25003809 25.9924796 -10.26064601 28.10520305 -10.2734375 30.21875 C-10.27211586 31.56250187 -10.26955336 32.90625322 -10.265625 34.25 C-10.26336914 35.47203125 -10.26111328 36.6940625 -10.25878906 37.953125 C-10.23184091 41.17472243 -10.23184091 41.17472243 -8 44 C-5.525 43.505 -5.525 43.505 -3 43 C-1.33368387 38.00105162 -1.81406646 32.78277845 -1.81469727 27.54833984 C-1.8125078 25.5072758 -1.79432948 23.46674993 -1.77539062 21.42578125 C-1.77345703 20.14058594 -1.77152344 18.85539062 -1.76953125 17.53125 C-1.76542236 16.35111328 -1.76131348 15.17097656 -1.75708008 13.95507812 C-1.77511394 10.81227282 -1.77511394 10.81227282 -4 8 C-5.32 8 -6.64 8 -8 8 Z " fill="#4B0082" transform="translate(153,342)"/>
<path d="M0 0 C3.96 0 7.92 0 12 0 C13.60521126 5.22970041 14.6664085 10.38372376 15.5078125 15.78515625 C15.63815887 16.60447128 15.76850525 17.42378632 15.90280151 18.26792908 C16.17547264 19.98955905 16.44595746 21.71153658 16.71435547 23.43383789 C17.12448645 26.05921258 17.54420603 28.68293125 17.96484375 31.30664062 C18.229744 32.98688825 18.49408594 34.66722401 18.7578125 36.34765625 C18.94526535 37.51507103 18.94526535 37.51507103 19.13650513 38.70606995 C19.77485051 42.84909383 20.13283807 46.79220793 20 51 C17.03 51 14.06 51 11 51 C10.67 48.03 10.34 45.06 10 42 C7.03 42 4.06 42 1 42 C0.67 44.97 0.34 47.94 0 51 C-2.64 51 -5.28 51 -8 51 C-7.39714874 41.74935141 -5.92178547 32.66316752 -4.41601562 23.52685547 C-3.99642882 20.97830884 -3.58374757 18.42870979 -3.171875 15.87890625 C-2.90665244 14.25253849 -2.64104174 12.62623396 -2.375 11 C-2.25205566 10.24066162 -2.12911133 9.48132324 -2.00244141 8.69897461 C-1.50546303 5.69962443 -0.96328813 2.8898644 0 0 Z M5 15 C3.27851598 24.94588472 3.27851598 24.94588472 3 35 C4.98 35 6.96 35 9 35 C8.71828671 32.22782133 8.42508608 29.45769759 8.125 26.6875 C8.04636719 25.90181641 7.96773438 25.11613281 7.88671875 24.30664062 C7.80292969 23.54931641 7.71914063 22.79199219 7.6328125 22.01171875 C7.55949707 21.31522217 7.48618164 20.61872559 7.41064453 19.90112305 C7.05293784 17.68233952 7.05293784 17.68233952 5 15 Z " fill="#4B0082" transform="translate(349,342)"/>
<path d="M0 0 C16 0 16 0 22 3 C26.17257037 9.20603821 25.62735059 15.79801527 25 23 C23.98161048 27.24675356 22.72855864 29.51429424 19 32 C15.67401793 32.55520331 12.36692991 32.73764183 9 33 C9 38.94 9 44.88 9 51 C6.03 51 3.06 51 0 51 C0 34.17 0 17.34 0 0 Z M9 8 C9 13.28 9 18.56 9 24 C10.98 24 12.96 24 15 24 C16.87725894 22.12274106 16.21702304 19.07149693 16.25 16.5625 C16.27578125 15.38816406 16.3015625 14.21382813 16.328125 13.00390625 C16.21984375 12.01261719 16.1115625 11.02132813 16 10 C13.04622502 7.63019987 13.04622502 7.63019987 9 8 Z " fill="#4B0082" transform="translate(311,342)"/>
<path d="M0 0 C3.0046421 1.16817959 3.85908636 1.7986948 5.75 4.5 C7.38991031 9.09174888 7.25734187 13.17722273 7 18 C4.36 18 1.72 18 -1 18 C-1.66 15.03 -2.32 12.06 -3 9 C-4.32 9 -5.64 9 -7 9 C-8.47905238 11.95810476 -8.12190903 14.9547155 -8.09765625 18.1953125 C-8.09553383 19.25647781 -8.09553383 19.25647781 -8.09336853 20.33908081 C-8.087766 22.60109669 -8.07521318 24.86301398 -8.0625 27.125 C-8.05748532 28.65755065 -8.05292236 30.19010286 -8.04882812 31.72265625 C-8.03779577 35.48180888 -8.02052952 39.24088772 -8 43 C-6.02 43 -4.04 43 -2 43 C-1.67 39.37 -1.34 35.74 -1 32 C1.64 32 4.28 32 7 32 C7.08160748 33.89510699 7.13946459 35.79124504 7.1875 37.6875 C7.23970703 39.27111328 7.23970703 39.27111328 7.29296875 40.88671875 C6.87374753 45.34164288 5.24769753 47.9357874 1.875 50.8125 C-2.14992618 52.47496951 -5.7036307 52.57700786 -10 52 C-12.95937605 50.74069104 -14.43559498 49.81838728 -16.25 47.1875 C-18.63356831 40.23542577 -18.18361199 32.872256 -18.1875 25.625 C-18.19974609 24.43132812 -18.21199219 23.23765625 -18.22460938 22.0078125 C-18.249673 6.90280387 -18.249673 6.90280387 -14.0625 1.5 C-9.49241309 -0.73840992 -5.00359972 -0.64129594 0 0 Z " fill="#4B0082" transform="translate(185,342)"/>
<path d="M0 0 C15 0 15 0 21 3 C24.54881056 7.14903222 24.48728863 11.2277987 24.4375 16.4375 C24.4674707 17.54448242 24.4674707 17.54448242 24.49804688 18.67382812 C24.49342909 23.86883304 23.4940625 26.93293617 20 31 C16.0599348 32.54788276 13.23762233 33 9 33 C9 38.94 9 44.88 9 51 C6.03 51 3.06 51 0 51 C0 34.17 0 17.34 0 0 Z M9 8 C9 13.28 9 18.56 9 24 C10.65 24 12.3 24 14 24 C15.87243981 22.12756019 15.17380392 19.06340482 15.1875 16.5625 C15.20167969 15.38816406 15.21585938 14.21382813 15.23046875 13.00390625 C15.31899256 9.88503098 15.31899256 9.88503098 13 8 C11.68 8 10.36 8 9 8 Z " fill="#4B0082" transform="translate(104,342)"/>
<path d="M0 0 C7.26 0 14.52 0 22 0 C22 2.64 22 5.28 22 8 C17.71 8 13.42 8 9 8 C9 12.29 9 16.58 9 21 C12.3 21 15.6 21 19 21 C19 23.97 19 26.94 19 30 C15.7 30 12.4 30 9 30 C9 34.29 9 38.58 9 43 C13.29 43 17.58 43 22 43 C22 45.64 22 48.28 22 51 C14.74 51 7.48 51 0 51 C0 34.17 0 17.34 0 0 Z " fill="#4B0082" transform="translate(235,342)"/>
<path d="M0 0 C7.0573739 0.94559221 13.93005574 2.45018086 20.875 4 C22.1228125 4.27328125 23.370625 4.5465625 24.65625 4.828125 C25.83960938 5.09109375 27.02296875 5.3540625 28.2421875 5.625 C29.3235498 5.86476563 30.40491211 6.10453125 31.51904297 6.3515625 C34 7 34 7 35 8 C35.08713831 9.70772358 35.10700007 11.41898649 35.09765625 13.12890625 C35.09443359 14.16337891 35.09121094 15.19785156 35.08789062 16.26367188 C35.07532227 17.8965918 35.07532227 17.8965918 35.0625 19.5625 C35.05798828 20.65498047 35.05347656 21.74746094 35.04882812 22.87304688 C35.03699826 25.58208495 35.02051543 28.29101599 35 31 C31.52508395 31 30.59941274 30.32118411 27.75390625 28.4375 C26.92149414 27.89198486 26.08908203 27.34646973 25.23144531 26.78442383 C23.91031738 25.90113403 23.91031738 25.90113403 22.5625 25 C20.75688546 23.79501075 18.95089667 22.5905821 17.14453125 21.38671875 C16.26619629 20.80067871 15.38786133 20.21463867 14.48291016 19.61083984 C12.35780969 18.23213651 10.21966431 16.94630748 8.01171875 15.70703125 C0.33072648 11.24561658 0.33072648 11.24561658 -0.71875 7.29296875 C-0.74736648 4.73537102 -0.55159715 2.49240194 0 0 Z " fill="#9370DB" transform="translate(184,263)"/>
<path d="M0 0 C8.58 0 17.16 0 26 0 C26 2.64 26 5.28 26 8 C23.03 8 20.06 8 17 8 C17 22.19 17 36.38 17 51 C14.03 51 11.06 51 8 51 C8 36.81 8 22.62 8 8 C5.36 8 2.72 8 0 8 C0 5.36 0 2.72 0 0 Z " fill="#4B0082" transform="translate(263,342)"/>
<path d="M0 0 C2.97 0 5.94 0 9 0 C9 14.19 9 28.38 9 43 C13.29 43 17.58 43 22 43 C22 45.64 22 48.28 22 51 C14.74 51 7.48 51 0 51 C0 34.17 0 17.34 0 0 Z " fill="#4B0082" transform="translate(377,342)"/>
<path d="M0 0 C0 11.55 0 23.1 0 35 C-3.44224352 32.93465389 -5.76382795 31.4939568 -8.55078125 28.86328125 C-9.16630859 28.28642578 -9.78183594 27.70957031 -10.41601562 27.11523438 C-11.04185547 26.52033203 -11.66769531 25.92542969 -12.3125 25.3125 C-12.95767578 24.70599609 -13.60285156 24.09949219 -14.26757812 23.47460938 C-15.84882134 21.98706946 -17.42493187 20.4940768 -19 19 C-18.23675061 15.41788996 -17.36035209 14.08822433 -14.5 11.75 C-13.78714844 11.15574219 -13.07429688 10.56148437 -12.33984375 9.94921875 C-11.56769531 9.30597656 -10.79554688 8.66273438 -10 8 C-8.34994823 6.52554059 -6.7040289 5.04644213 -5.0625 3.5625 C-1.12144213 0 -1.12144213 0 0 0 Z " fill="#9972B6" transform="translate(393,198)"/>
<path d="M0 0 C8.94682676 6.71012007 8.94682676 6.71012007 12.3125 10.25 C14.51205764 12.55217392 16.32514618 14.21676412 19 16 C18.42377301 19.33624128 17.45958249 20.88510333 14.98046875 23.1640625 C14.37009766 23.72867188 13.75972656 24.29328125 13.13085938 24.875 C12.16889648 25.74125 12.16889648 25.74125 11.1875 26.625 C10.55779297 27.21023437 9.92808594 27.79546875 9.27929688 28.3984375 C6.19527798 31.22033097 3.80868805 33.09565597 0 35 C0 23.45 0 11.9 0 0 Z " fill="#9872BF" transform="translate(107,198)"/>
<path d="M0 0 C2.31 1.98 4.62 3.96 7 6 C8.99702063 7.67023543 10.99599938 9.33814583 13 11 C12.06409496 12.1055189 11.12620142 13.20935453 10.1875 14.3125 C9.40439453 15.23482422 9.40439453 15.23482422 8.60546875 16.17578125 C5.6626898 19.51952278 5.6626898 19.51952278 4 21 C3.34 21 2.68 21 2 21 C2 21.66 2 22.32 2 23 C1.34 23 0.68 23 0 23 C0 15.41 0 7.82 0 0 Z " fill="#68369D" transform="translate(107,204)"/>
<path d="M0 0 C0 7.59 0 15.18 0 23 C-6.75 18.5 -6.75 18.5 -9.875 15.25 C-10.47054688 14.63640625 -11.06609375 14.0228125 -11.6796875 13.390625 C-12.11539062 12.93171875 -12.55109375 12.4728125 -13 12 C-11.85872377 10.85872377 -10.71713121 9.71776264 -9.57421875 8.578125 C-8.42588635 7.42694314 -7.28344889 6.26987213 -6.14453125 5.109375 C-5.51933594 4.47515625 -4.89414062 3.8409375 -4.25 3.1875 C-3.36054688 2.28064453 -3.36054688 2.28064453 -2.453125 1.35546875 C-1 0 -1 0 0 0 Z " fill="#67359C" transform="translate(393,204)"/>
<path d="M0 0 C1.9375 1.9375 1.9375 1.9375 3 4 C3 4.66 3 5.32 3 6 C1.35 6 -0.3 6 -2 6 C-2 5.34 -2 4.68 -2 4 C-3.65 4.33 -5.3 4.66 -7 5 C-7.33 5.99 -7.66 6.98 -8 8 C-6.68798827 9.56249809 -6.68798827 9.56249809 -5 11 C-4.01 11 -3.02 11 -2 11 C-2 10.34 -2 9.68 -2 9 C-0.35 9 1.3 9 3 9 C2.13088303 11.75220373 1.5527839 13.5656698 -0.75 15.375 C-3.83916317 16.23310088 -5.92723121 15.84991477 -9 15 C-11.88419236 13.20981164 -12.016524 11.93009076 -12.8125 8.5625 C-13.07042254 3.66197183 -13.07042254 3.66197183 -11 1 C-7.44020669 -1.76872813 -4.1946238 -1.06772242 0 0 Z " fill="#663399" transform="translate(258,410)"/>
<path d="M0 0 C1.65 0 3.3 0 5 0 C5.33 0.66 5.66 1.32 6 2 C6.66 1.34 7.32 0.68 8 0 C11.125 -0.125 11.125 -0.125 14 0 C12.35 2.64 10.7 5.28 9 8 C11.475 11.465 11.475 11.465 14 15 C11.125 15.125 11.125 15.125 8 15 C7.34 14.34 6.68 13.68 6 13 C5.67 13.66 5.34 14.32 5 15 C3.35 15 1.7 15 0 15 C0 10.05 0 5.1 0 0 Z " fill="#663399" transform="translate(263,410)"/>
<path d="M0 0 C3.3 0 6.6 0 10 0 C11.125 2.125 11.125 2.125 12 5 C11.34561559 7.00405227 10.67939174 9.00428677 10 11 C10.74875954 13.33725801 10.74875954 13.33725801 12 15 C8 15 4 15 0 15 C0 10.05 0 5.1 0 0 Z M5 3 C5.33 4.32 5.66 5.64 6 7 C6.33 5.68 6.66 4.36 7 3 C6.34 3 5.68 3 5 3 Z " fill="#663399" transform="translate(215,410)"/>
<path d="M0 0 C6.8359375 -0.1953125 6.8359375 -0.1953125 9 0 C9.66 0.66 10.32 1.32 11 2 C10.8940163 4.5745207 10.48368639 7.04400906 10.09375 9.58984375 C9.75365541 12.26598982 9.75365541 12.26598982 12 15 C8 15 4 15 0 15 C0 10.05 0 5.1 0 0 Z M4 3 C4.33 4.32 4.66 5.64 5 7 C5.66 6.67 6.32 6.34 7 6 C6.67 5.01 6.34 4.02 6 3 C5.34 3 4.68 3 4 3 Z " fill="#663399" transform="translate(291,410)"/>
<path d="M0 0 C1.65 0 3.3 0 5 0 C6.98 4.95 8.96 9.9 11 15 C9.35 15 7.7 15 6 15 C5.67 14.01 5.34 13.02 5 12 C3.35 12 1.7 12 0 12 C-0.33 12.99 -0.66 13.98 -1 15 C-2.32 15 -3.64 15 -5 15 C-4.37321829 11.33827525 -3.35548154 8.1181005 -1.9375 4.6875 C-1.39416016 3.36298828 -1.39416016 3.36298828 -0.83984375 2.01171875 C-0.56269531 1.34785156 -0.28554687 0.68398438 0 0 Z M2 6 C2 6.99 2 7.98 2 9 C2.66 8.67 3.32 8.34 4 8 C3.34 7.34 2.68 6.68 2 6 Z " fill="#663399" transform="translate(233,410)"/>
<path d="M0 0 C3.3 0 6.6 0 10 0 C10 0.99 10 1.98 10 3 C8.02 3 6.04 3 4 3 C4 3.66 4 4.32 4 5 C5.65 5 7.3 5 9 5 C9.33 6.32 9.66 7.64 10 9 C8.02 9 6.04 9 4 9 C4 9.99 4 10.98 4 12 C5.98 12 7.96 12 10 12 C10 12.99 10 13.98 10 15 C6.7 15 3.4 15 0 15 C0 10.05 0 5.1 0 0 Z " fill="#663399" transform="translate(278,410)"/>
<path d="M0 0 C3.96 0 7.92 0 12 0 C12 0.99 12 1.98 12 3 C10.68 3 9.36 3 8 3 C8 6.96 8 10.92 8 15 C6.68 15 5.36 15 4 15 C4 11.04 4 7.08 4 3 C2.68 3 1.36 3 0 3 C0 2.01 0 1.02 0 0 Z " fill="#663399" transform="translate(201,410)"/>
<path d="M0 0 C0.5 2.5 0.5 2.5 0 6 C-2.39206888 8.9729999 -5.17108214 11.44984412 -8 14 C-9.34024763 15.326383 -10.67564504 16.65774835 -12 18 C-10.75323147 19.27400377 -9.5024352 20.54406654 -8.25 21.8125 C-7.55390625 22.52019531 -6.8578125 23.22789062 -6.140625 23.95703125 C-4.06278237 26.03281493 -4.06278237 26.03281493 -1.734375 27.63671875 C-0.87585938 28.31154297 -0.87585938 28.31154297 0 29 C0 29.66 0 30.32 0 31 C-0.66 31 -1.32 31 -2 31 C-2 30.34 -2 29.68 -2 29 C-2.556875 28.7525 -3.11375 28.505 -3.6875 28.25 C-6.42410913 26.77075182 -8.67650869 25.06532561 -11 23 C-11 22.34 -11 21.68 -11 21 C-11.639375 20.71125 -12.27875 20.4225 -12.9375 20.125 C-15 19 -15 19 -16 17 C-15.22914063 16.38511719 -14.45828125 15.77023438 -13.6640625 15.13671875 C-12.66117187 14.32847656 -11.65828125 13.52023438 -10.625 12.6875 C-9.62726563 11.88699219 -8.62953125 11.08648437 -7.6015625 10.26171875 C-4.86519247 8.08378314 -4.86519247 8.08378314 -3 5 C-4.98 6.65 -6.96 8.3 -9 10 C-7.85488963 7.02271304 -3.65933899 0 0 0 Z " fill="#916DD4" transform="translate(393,198)"/>
<path d="M0 0 C3.23475448 1.61737724 4.70572021 2.47629223 7 5 C5.38723498 9.25183506 4.41866801 9.34879919 0 12 C0 8.04 0 4.08 0 0 Z " fill="#4F0786" transform="translate(107,210)"/>
<path d="M0 0 C0 3.96 0 7.92 0 12 C-2.31 10.35 -4.62 8.7 -7 7 C-3.86206897 0 -3.86206897 0 0 0 Z " fill="#4E0584" transform="translate(393,210)"/>
<path d="M0 0 C0.59296875 0.21269531 1.1859375 0.42539063 1.796875 0.64453125 C-1.92455796 4.55900684 -5.34345476 8.14106476 -10.203125 10.64453125 C-10.203125 9.32453125 -10.203125 8.00453125 -10.203125 6.64453125 C-9.543125 6.64453125 -8.883125 6.64453125 -8.203125 6.64453125 C-8.203125 5.98453125 -8.203125 5.32453125 -8.203125 4.64453125 C-2.96161877 -0.47784984 -2.96161877 -0.47784984 0 0 Z " fill="#956EB0" transform="translate(117.203125,220.35546875)"/>
<path d="M0 0 C3.36591866 1.44253657 5.51047079 3.33264727 8 6 C6.68 7.32 5.36 8.64 4 10 C3.01 9.67 2.02 9.34 1 9 C1.99 7.68 2.98 6.36 4 5 C3.01 4.319375 3.01 4.319375 2 3.625 C1.34 3.08875 0.68 2.5525 0 2 C0 1.34 0 0.68 0 0 Z " fill="#906CD3" transform="translate(115,210)"/>
<path d="M0 0 C0 3 0 3 -1.96875 5.04296875 C-2.8040625 5.75066406 -3.639375 6.45835937 -4.5 7.1875 C-5.3353125 7.90292969 -6.170625 8.61835938 -7.03125 9.35546875 C-7.6809375 9.89816406 -8.330625 10.44085938 -9 11 C-9 8 -9 8 -7.03125 5.95703125 C-6.1959375 5.24933594 -5.360625 4.54164063 -4.5 3.8125 C-3.6646875 3.09707031 -2.829375 2.38164062 -1.96875 1.64453125 C-1.3190625 1.10183594 -0.669375 0.55914062 0 0 Z " fill="#9370DA" transform="translate(117,222)"/>
</svg>
